<svg width="123" height="105" viewBox="0 0 123 105" fill="none" xmlns="http://www.w3.org/2000/svg">
<g clip-path="url(#clip0_2_142)">
<path d="M95.743 47.6158C95.513 46.9098 95.8416 46.5567 95.973 45.9291C96.1045 45.3015 95.6773 43.3402 95.6773 43.3402C95.6773 43.3402 94.2973 36.5541 93.8701 35.2205C93.6894 34.6561 93.2968 34.2678 92.904 34.0071C92.8774 33.834 92.8389 33.7223 92.7858 33.6906C92.4052 33.4633 91.4571 32.9697 90.8252 32.8332C90.7071 32.5908 90.567 32.3646 90.4074 32.1587C90.5183 31.9045 90.5697 31.6193 90.5563 31.3331C90.516 30.593 90.0465 29.9298 90.1076 29.1918C90.1539 28.6321 90.4967 28.1723 90.629 27.6325C90.6845 27.39 90.6976 27.1365 90.6675 26.8878C90.6375 26.639 90.565 26.4003 90.4544 26.1864C90.5516 26.3099 90.6488 26.4333 90.746 26.5567C90.8782 26.3202 90.9419 26.0384 90.9272 25.7546C90.9125 25.4707 90.8203 25.2004 90.6647 24.9851C90.3569 24.5792 89.8423 24.427 89.6035 23.9596C89.3582 23.4793 89.4899 22.8267 89.2578 22.337C88.6895 21.1375 87.2344 21.9878 86.3628 21.5691C86.0047 21.3971 85.7324 21.2077 85.3294 21.2213C84.9868 21.2448 84.6481 21.3203 84.3214 21.4461C83.8529 21.6079 83.4451 21.9569 83.1662 22.4346C83.1937 22.3972 83.2239 22.3628 83.2564 22.3316C83.4676 22.1341 83.838 22.1505 83.9495 22.4418C83.9762 22.5151 83.9873 22.595 83.9821 22.6746C83.9637 23.0258 83.7067 23.2881 83.4514 23.4638C83.196 23.6396 82.9087 23.7866 82.742 24.0769C82.467 24.5559 82.6287 25.1987 82.6288 25.7794C82.6266 26.1485 82.555 26.5122 82.4194 26.8439C82.2838 27.1756 82.0876 27.4667 81.8453 27.6959L82.7725 27.2434C82.3298 28.1684 82.0392 29.1858 81.9162 30.241L83.1699 29.0047C82.7056 29.8868 82.4234 30.888 82.3465 31.9258L83.3527 30.695C83.3986 30.7911 83.4215 30.9004 83.4191 31.011L83.3142 31.4941C83.2771 31.59 83.236 31.6836 83.1911 31.7746C83.0292 32.1065 82.8618 32.515 83.0132 32.8539L83.0139 32.8535C82.8545 33.4938 82.614 34.1344 82.0791 34.4458C82.6725 34.5199 83.2917 34.1657 83.5597 33.602C83.6034 33.7034 83.6561 33.7989 83.7171 33.8868C83.7343 33.9125 83.7513 33.9381 83.7683 33.9636L83.6205 34.0813L83.2242 34.3967C83.2242 34.3967 80.6284 35.0243 80.7927 36.2011C80.7995 36.2495 80.8076 36.3073 80.8167 36.3721L80.0699 37.8878L78.9856 42.2811C78.9856 42.2811 78.427 43.6932 78.5255 44.2816C78.6241 44.87 78.5255 45.1054 78.5255 46.1645C78.5255 47.2236 78.0984 47.655 78.5255 48.518C78.9527 49.381 80.2341 51.8914 80.2341 51.8914L80.5156 52.1435C80.5019 52.2948 80.5067 52.4478 80.5299 52.5975C80.7927 54.1665 83.2571 69.1901 83.2571 69.1901C83.2571 69.1901 82.0085 81.0755 84.5385 81.8208C84.8558 81.9143 85.1674 81.9991 85.4702 82.0746L85.8528 85.0765L85.6228 88.8814C85.6228 88.8814 83.8814 93.5885 87.0686 93.8631C90.2558 94.1377 88.81 89.7836 88.81 89.7836C88.9782 89.4119 89.0471 88.9875 89.0072 88.5676C88.9747 88.2184 88.7011 86.4014 88.4328 84.6537C89.6423 84.4806 89.416 82.9481 89.2548 82.2743C89.3246 82.2257 89.3768 82.148 89.4015 82.0561C89.4379 81.8997 89.3531 81.2841 89.1993 80.4215C89.074 79.564 88.8599 78.1758 88.7139 77.2355L89.5 77.3883L92.8187 54.1665C92.8187 54.1665 92.8406 53.7969 92.8306 53.2562C93.2843 52.976 93.7522 52.7298 94.2315 52.519C95.3159 52.0091 95.743 50.1263 96.1044 49.3417C96.4659 48.5572 95.973 48.3219 95.743 47.6158ZM83.9601 32.8305C84.0675 32.7421 84.1933 32.6912 84.3236 32.6833C84.2955 32.8658 84.0326 32.9191 83.8122 33.0146C83.8527 32.944 83.9026 32.8817 83.9601 32.8305ZM82.3042 44.517C82.5704 45.0391 82.0884 46.4539 81.6541 47.5767C81.4052 47.3206 81.1454 47.4013 81.4499 46.6744C81.6575 46.2138 81.7807 45.7057 81.8113 45.1838C81.8113 45.0941 81.8498 44.4351 82.1736 44.1614C82.2077 44.2845 82.2514 44.4036 82.3042 44.517ZM81.307 49.0232C81.4576 48.95 81.6857 48.8376 81.9938 48.7125C81.8462 48.9438 81.6777 49.2193 81.5082 49.5201C81.4442 49.4621 81.3926 49.3869 81.3576 49.3005C81.3226 49.2142 81.3053 49.1191 81.307 49.0232ZM91.9644 49.5379C91.7646 49.2845 91.6032 49.0579 91.4703 48.8551C91.7181 48.9329 91.9704 49.0167 92.2272 49.1064C92.3552 49.1292 92.4858 49.1188 92.6101 49.076C92.6215 49.3471 92.6215 49.734 92.6215 49.734L92.2616 50.0315C92.1796 49.8532 92.0798 49.6875 91.9644 49.5379ZM92.984 48.1775C92.9802 48.1815 92.9761 48.1861 92.9721 48.1903C92.9544 48.0352 92.9251 47.8823 92.8844 47.7335C92.669 46.9227 92.554 45.4842 92.4928 44.2567L93.1144 46.7529C93.1144 46.7529 93.1472 48.0081 92.984 48.1775Z" fill="#D0CDE1"/>
<path d="M80.2207 37.8673C80.2207 37.8673 76.8497 30.9505 76.7443 30.1959C76.639 29.4414 74.9535 28.058 74.9535 28.058C74.3776 27.3705 73.4328 27.153 72.4384 27.1643C72.8129 26.7945 71.4759 26.5459 71.3718 26.2974C71.2665 26.0459 70.9504 26.0459 70.5291 25.6686C70.1077 25.2913 69.056 25.6057 69.0558 25.6057C68.8977 25.2085 68.7876 24.7865 68.7291 24.3524C69.178 23.7183 69.4239 22.9146 69.423 22.0844C69.423 22.0754 69.4225 22.0665 69.4224 22.0575C69.4492 22.1073 69.476 22.1575 69.5029 22.2091C69.7002 20.798 70.0485 19.625 69.3846 18.3377C68.914 17.4253 68.1773 16.753 67.3164 16.4501L66.684 17.054L66.9299 16.3496C66.7231 16.312 66.5139 16.2976 66.3049 16.3065L65.7359 17.1798L65.9714 16.3364C65.4777 16.4097 65.0021 16.6042 64.5746 16.9079C64.147 17.2115 63.7767 17.6176 63.4872 18.1005C62.7631 19.347 62.8115 21.0797 63.5237 22.3359C63.5261 22.3272 63.528 22.3185 63.5304 22.3098C63.5618 22.8975 63.7163 23.4663 63.9796 23.9643C64.2429 24.4623 64.6066 24.8735 65.0375 25.1602L65.2164 26.8688C65.0554 27.0473 64.8488 27.1561 64.6298 27.1777C64.3138 27.1777 63.9978 28.1838 63.9978 28.1838C63.9978 28.1838 63.8187 28.2917 63.6256 28.8011C63.1283 29.2053 61.6114 30.4748 61.0486 31.362C60.7157 31.5576 60.3581 31.9926 60.4161 32.9627C60.5215 34.7233 60.4161 42.8977 60.4161 42.8977C60.4161 42.8977 59.468 49.8145 59.7841 50.3175C60.1001 50.8206 59.6787 52.4554 59.6787 52.4554L59.9947 52.5393V52.9585C59.9947 52.9585 59.0442 58.2189 60.5215 57.9889C62.9444 57.6116 61.1535 53.3358 61.1535 53.3358V52.8467L61.5749 52.9585C61.5749 52.9585 61.7856 51.1978 62.207 51.0721C62.3535 51.0283 62.5255 50.5583 62.6876 49.9641C62.7821 50.891 62.839 51.4494 62.839 51.4494L63.4982 51.2745L63.6818 52.0782C63.727 52.1085 63.7744 52.1341 63.8233 52.1547L63.6818 53.0842C63.6818 53.0842 63.5764 54.0903 63.6818 54.7191C63.7349 55.0362 65.6903 61.8145 67.6158 68.4563L67.5795 70.0618C67.5795 70.0618 66.6314 71.3194 66.8421 72.1997C67.0528 73.0801 66.3154 80.3741 66.3154 80.3741L65.6833 84.0212L65.8423 84.0796L65.6963 84.7186C65.5706 84.7944 65.4587 84.8993 65.3673 85.0272C64.5245 86.1591 63.4711 89.4288 63.4711 89.4288C63.4711 89.4288 61.5749 92.8244 64.5245 92.6986C67.4741 92.5728 67.6848 91.3152 67.6848 91.3152C67.6848 91.3152 68.1062 88.0455 68.1062 87.9197C68.1062 87.794 67.8955 86.5012 67.8955 86.5012L67.8137 86.3935L67.8708 84.8247L68.4222 85.0272C68.4222 85.0272 68.9489 81.7575 69.3703 81.3802C69.5176 81.2484 69.9094 79.7795 70.3567 77.8929C70.814 79.4647 71.2568 84.8994 71.4005 85.3927C71.3495 85.4757 71.3047 85.5638 71.2665 85.656C70.793 86.7409 70.2653 87.7907 69.6863 88.8C69.6863 88.8 66.3154 91.1895 69.6863 91.8183C69.6863 91.8183 71.5825 91.944 72.5306 91.1895C73.4787 90.4349 76.0069 89.3031 76.0069 89.0516C76.0069 88.8 75.3749 85.1027 74.7428 85.5051L74.3194 84.3426L74.7428 84.1469L72.0758 69.8556C72.1389 69.551 72.1852 69.2418 72.2146 68.93C72.2146 68.2714 73.5786 55.4479 73.9257 52.1953C75.4534 52.712 76.8497 48.9342 76.8497 48.9342L77.196 48.19L77.6924 48.5569C77.6924 48.5569 78.1138 47.2993 78.7459 47.1735C79.3779 47.0478 80.5367 40.3825 80.5367 39.5022C80.527 38.937 80.4194 38.3804 80.2207 37.8673ZM75.3125 47.7204C75.2089 47.5239 75.0886 47.3406 74.9535 47.1735C75.2289 46.3171 75.4404 45.4334 75.5856 44.5326C75.7962 43.1492 75.2695 38.6218 75.2695 38.6218L75.2603 38.3144C75.7773 39.1246 76.4283 40.2049 76.4283 40.5082C76.4283 40.6547 76.4569 40.7991 76.5117 40.9301C76.5666 41.061 76.6462 41.1749 76.7443 41.2628L76.1123 43.9038C76.1123 43.9038 75.6909 45.1613 75.5856 45.7901C75.5224 46.163 75.4872 46.5417 75.4802 46.922L75.6295 47.0323L75.3125 47.7204Z" fill="#D0CDE1"/>
<path d="M31.9939 40.195L32.556 40.044L30.2385 32.2469L25.2347 30.0461C25.2347 30.0461 25.2155 30.0715 25.1801 30.1152C24.7533 29.6221 24.5722 28.9065 24.4965 28.3433C24.8989 28.1492 25.2604 27.8516 25.5554 27.4715C25.8503 27.0914 26.0713 26.6383 26.2026 26.1445C26.3339 25.6506 26.3723 25.1283 26.315 24.6148C26.2577 24.1012 26.1062 23.6091 25.8712 23.1735C26.2836 23.0553 26.4308 22.6088 26.5692 22.0763C26.4835 22.0461 26.3961 22.0234 26.3076 22.0083C26.3725 21.8347 26.4373 21.6611 26.5022 21.4875C26.3882 21.4753 26.2743 21.4631 26.1603 21.4509C26.1894 21.2886 26.2186 21.1264 26.2477 20.9641C26.1024 21.0839 25.9571 21.2036 25.8117 21.3234C25.8611 21.153 25.8734 20.9705 25.8474 20.7929C25.8214 20.6154 25.7581 20.4486 25.6633 20.3083C25.4703 20.0299 25.2186 19.818 24.9341 19.6945C24.3777 19.4332 23.7718 19.36 23.1829 19.4828C22.594 19.6057 22.0448 19.9199 21.5957 20.391L21.5642 20.2445C20.6748 21.0607 20.0929 22.2646 19.946 23.5922C19.8064 24.9046 20.3345 26.2409 21.021 27.2794C21.0152 27.2341 21.009 27.1888 21.0027 27.1437C21.0323 27.1925 21.063 27.2403 21.0946 27.2873L21.179 31.1151L20.9676 31.3313C20.9673 31.3315 17.422 33.2463 17.2838 35.5334L17.2834 35.5351C17.0706 36.6485 16.9652 42.4334 16.9652 42.4334H17.257L16.9652 44.6971L15.0691 53.5003C15.0691 53.5003 12.6462 57.2731 14.753 58.0277C16.0622 58.4966 16.4358 56.6832 16.531 55.2428C16.6069 55.5998 16.8337 55.8412 17.2813 55.8897C17.3165 55.8936 17.3541 55.8967 17.3905 55.9003C16.3943 58.9737 17.0706 68.9688 17.0706 68.9688C16.5439 70.2264 22.7591 78.9038 22.7591 78.9038L23.1334 78.6655L23.2144 78.8589C23.0061 78.8827 22.8645 78.9038 22.8645 78.9038V82.8023C22.8645 82.8023 21.9164 86.7009 23.1805 87.4555C23.5076 87.6507 23.8488 87.5087 24.1749 87.1915C24.1126 88.3946 24.0232 90.19 24.0232 90.5995C24.0232 91.2283 25.3927 92.3601 25.3927 92.3601C25.3927 92.3601 25.7087 93.7435 28.237 93.7435C30.7652 93.7435 28.869 90.0964 28.869 90.0964L27.4996 86.4494C27.4996 86.4494 27.3971 86.5092 27.087 86.2079L27.1981 84.7495L27.8156 84.8145L28.6584 70.1006C28.6584 70.1006 29.3958 57.0216 29.5011 55.0094C29.5258 54.3643 29.513 53.7179 29.463 53.0749L32.556 45.4517L31.9939 40.195ZM29.7118 45.0744L29.3958 46.3892V43.4814L29.7118 45.0744ZM16.5604 54.4006C16.563 53.9397 16.5439 53.6261 16.5439 53.6261L18.6033 48.7089L18.5454 50.2306C18.5454 50.2306 16.896 52.7213 16.5604 54.4006ZM21.3897 68.5915L23.3912 60.1656L24.55 70.3521L24.4669 74.0554C24.3258 73.7151 24.2125 73.3594 24.1286 72.9931C23.8126 71.484 21.3897 68.5915 21.3897 68.5915Z" fill="#D0CDE1"/>
<path d="M49.897 88.607C48.9099 88.1218 46.994 87.0821 46.7617 86.5276C46.5295 85.9731 45.3683 81.6756 45.3683 81.6756L45.0692 81.7016C45.0307 79.7494 44.866 72.1832 44.6135 71.2787C44.6135 71.2787 45.8327 59.2875 43.3942 54.5049L42.9548 52.3859C43.099 51.5364 43.0805 49.5693 42.9878 49.2371C42.8716 48.8212 44.3232 47.5043 43.9168 46.6725C43.5103 45.8408 42.4072 42.9989 42.4072 42.9989C42.4072 42.9989 42.5233 41.1968 40.9557 39.5333C40.9557 39.5333 40.4975 36.4371 38.4332 36.391C38.1541 35.8096 37.7635 34.8851 37.8784 34.4734C38.0015 34.0327 38.4721 32.6587 38.7378 31.8896C38.879 31.8135 39.0146 31.7234 39.1432 31.6203C40.7849 30.7422 41.9423 28.6311 41.9423 26.165C41.9423 23.5251 40.6165 21.2909 38.7894 20.5418C38.8708 20.2857 38.904 20.0114 38.8869 19.7383C38.8697 19.4652 38.8025 19.1999 38.69 18.9612C38.5775 18.7225 38.4225 18.5161 38.2359 18.3568C38.0493 18.1975 37.8357 18.089 37.6101 18.0391C37.3845 17.9891 37.1525 17.9989 36.9304 18.0678C36.7084 18.1366 36.5017 18.2629 36.325 18.4376C36.1483 18.6122 36.0059 18.8311 35.9078 19.0787C35.8098 19.3263 35.7584 19.5966 35.7575 19.8705C35.657 19.5862 35.6171 19.2766 35.6412 18.9693C35.6654 18.6621 35.7529 18.3668 35.896 18.1097C36.039 17.8527 36.2332 17.642 36.4611 17.4963C36.6889 17.3507 36.9435 17.2747 37.202 17.2751C37.3038 17.2752 37.4053 17.2872 37.5051 17.3108C37.1609 17.1153 36.7688 17.0764 36.4023 17.2014C36.0358 17.3264 35.72 17.6066 35.5142 17.9896C35.3083 18.3726 35.2266 18.832 35.2841 19.2818C35.3417 19.7316 35.5347 20.1409 35.827 20.433C35.8451 20.5014 35.8664 20.5686 35.891 20.6341C34.1718 21.4623 32.9454 23.626 32.9454 26.165C32.9454 28.5202 34.0009 30.5518 35.5258 31.4948C35.5177 32.2609 35.3586 33.5525 34.4735 34.3397C34.0164 34.0903 33.3819 33.8166 32.9748 33.9407C32.7643 33.7448 32.4466 33.6801 32.0143 34.1962C31.1434 35.2359 30.3886 37.9391 30.3886 39.6026C30.3886 41.2661 30.5628 50.9006 30.5628 50.9006C30.5628 50.9006 29.6339 51.3165 30.2725 51.9403C30.4044 52.0715 30.5699 52.1449 30.7416 52.1484L31.3757 57.7626C31.3757 57.7626 30.9693 63.1691 32.5369 63.2384C32.6598 63.2464 32.782 63.2106 32.8878 63.1355L31.724 69.4072C31.724 69.4072 29.0533 71.4866 26.9631 75.5761C25.8865 77.6824 25.3498 78.9782 25.0817 79.7411L24.6987 79.4576L23.3633 82.5074C23.3633 82.5074 20.4022 84.6561 21.0409 86.2503C21.6796 87.8445 22.2602 88.2604 22.2602 88.2604L22.6666 88.0525L23.4214 89.716C23.4214 89.716 25.3954 93.1123 28.5888 91.3795C28.7386 91.1391 28.8196 90.8474 28.8196 90.5477C28.8196 90.2481 28.7386 89.9564 28.5888 89.716C28.0662 88.8149 26.7308 86.8741 26.7308 86.8741L27.6017 81.6064L27.4215 81.473L32.9433 73.4967C32.9433 73.4967 34.569 72.3184 35.1496 71.2787C35.7302 70.239 39.33 59.4955 39.33 59.4955L41.3621 70.7242C41.3621 70.7242 41.246 74.8137 41.7685 77.4476C42.0533 78.925 42.2391 80.4273 42.324 81.94L42.1749 81.9529L42.5233 85.072C42.5233 85.072 41.0137 89.5081 42.0588 89.8546C42.8023 90.0839 43.5593 90.2461 44.3232 90.3398L44.4393 89.8546C44.4393 89.8546 48.91 92.7658 50.5356 90.6171C50.5356 90.6171 50.884 89.0922 49.897 88.607ZM33.9884 54.5742C34.1626 54.7822 34.1045 55.7525 34.1045 55.7525L33.7562 58.4558L33.4082 60.3307C33.3601 59.4449 33.263 58.5638 33.1175 57.6933L32.9568 52.513C32.9884 52.5367 33.0231 52.554 33.0594 52.5641C33.1755 52.5641 33.1175 51.3858 33.1175 51.3858C33.1175 51.3858 33.1853 51.1754 33.2698 50.8433C33.4955 51.65 33.7711 52.1763 34.1045 52.2869L34.1626 53.188C34.1626 53.188 33.4078 53.6038 34.1045 53.6038C34.1449 53.6021 34.1851 53.5949 34.2242 53.5826L34.1626 53.9504C34.1626 53.9504 33.8142 54.3663 33.9884 54.5742Z" fill="#D0CDE1"/>
<path d="M48.9046 91.8359C74.681 91.8359 95.577 91.4247 95.577 90.9175C95.577 90.4102 74.681 89.999 48.9046 89.999C23.1281 89.999 2.23218 90.4102 2.23218 90.9175C2.23218 91.4247 23.1281 91.8359 48.9046 91.8359Z" fill="#3F3D56"/>
<path d="M65.2396 95.6627C93.5936 95.6627 116.579 94.6004 116.579 93.2901C116.579 91.9797 93.5936 90.9174 65.2396 90.9174C36.8857 90.9174 13.9003 91.9797 13.9003 93.2901C13.9003 94.6004 36.8857 95.6627 65.2396 95.6627Z" fill="#3F3D56"/>
<path d="M55.7644 99.1833C69.6794 99.1833 80.9598 98.121 80.9598 96.8107C80.9598 95.5003 69.6794 94.4381 55.7644 94.4381C41.8493 94.4381 30.569 95.5003 30.569 96.8107C30.569 98.121 41.8493 99.1833 55.7644 99.1833Z" fill="#3F3D56"/>
<path d="M92.1792 100.867C98.3754 100.867 103.398 100.319 103.398 99.6425C103.398 98.9662 98.3754 98.4179 92.1792 98.4179C85.9829 98.4179 80.9598 98.9662 80.9598 99.6425C80.9598 100.319 85.9829 100.867 92.1792 100.867Z" fill="#3F3D56"/>
<path d="M76.7926 105C79.7314 105 82.1138 104.452 82.1138 103.775C82.1138 103.099 79.7314 102.551 76.7926 102.551C73.8538 102.551 71.4714 103.099 71.4714 103.775C71.4714 104.452 73.8538 105 76.7926 105Z" fill="#3F3D56"/>
<path d="M33.454 99.7956C36.3928 99.7956 38.7751 99.2473 38.7751 98.571C38.7751 97.8947 36.3928 97.3464 33.454 97.3464C30.5152 97.3464 28.1328 97.8947 28.1328 98.571C28.1328 99.2473 30.5152 99.7956 33.454 99.7956Z" fill="#3F3D56"/>
<path d="M59.7393 84.718L60.2521 89.004L62.8166 88.6979L62.5601 84.2588L59.7393 84.718Z" fill="#FFB8B8"/>
<path d="M47.5583 84.718L47.0454 89.004L44.481 88.6979L44.7374 84.2588L47.5583 84.718Z" fill="#FFB8B8"/>
<path d="M43.8399 40.3274C43.8399 40.3274 41.5319 43.5419 42.0448 48.5933C42.5577 53.6446 43.4553 65.1249 43.4553 65.1249L44.0964 85.4834L48.1994 85.1773L48.8405 67.8802L50.8921 53.9507L56.4056 70.1763C56.4056 70.1763 59.0982 85.3303 59.2264 85.3303C59.3546 85.3303 63.073 84.8711 63.073 84.8711L61.278 66.9618C61.278 66.9618 58.4571 40.9397 56.7902 40.4805C55.1234 40.0213 43.8399 40.3274 43.8399 40.3274Z" fill="#2F2E41"/>
<path d="M63.073 88.0856C63.073 88.0856 60.765 86.2488 59.8675 88.3918C58.9699 90.5348 59.7393 92.0655 59.7393 92.0655C59.7393 92.0655 60.5086 92.6778 60.1239 93.2901C59.7393 93.9023 59.611 97.8822 62.9448 97.2699C66.2785 96.6576 64.6116 92.5247 64.6116 92.5247L63.073 88.0856Z" fill="#2F2E41"/>
<path d="M44.2245 88.0856C44.2245 88.0856 46.5325 86.2488 47.4301 88.3918C48.3276 90.5348 47.5583 92.0655 47.5583 92.0655C47.5583 92.0655 46.789 92.6778 47.1736 93.2901C47.5583 93.9023 47.6865 97.8822 44.3528 97.2699C41.019 96.6576 42.6859 92.5247 42.6859 92.5247L44.2245 88.0856Z" fill="#2F2E41"/>
<path d="M46.9813 10.5551C46.9813 10.5551 48.1353 14.3819 47.2378 16.5249C46.3402 18.6679 48.6482 21.117 48.6482 21.117C48.6482 21.117 54.6746 17.4433 53.9052 15.6064C53.1359 13.7696 51.8537 11.3204 52.1102 9.78973L46.9813 10.5551Z" fill="#FFB8B8"/>
<path d="M49.2251 12.0093C51.4912 12.0093 53.3282 9.81623 53.3282 7.11099C53.3282 4.40574 51.4912 2.21271 49.2251 2.21271C46.9591 2.21271 45.1221 4.40574 45.1221 7.11099C45.1221 9.81623 46.9591 12.0093 49.2251 12.0093Z" fill="#FFB8B8"/>
<path d="M46.276 16.2952C46.276 16.2952 50.393 20.3851 53.4633 14.5899L56.6619 16.7545L58.3288 40.0213C58.3288 40.0213 48.9687 46.4503 44.481 40.9397L45.1221 19.3567L46.276 16.2952Z" fill="#D0CDE1"/>
<path d="M47.5689 14.0042L41.7883 18.5913L43.8399 29.9185L41.1472 47.5217L45.5067 39.7151L47.5689 14.0042Z" fill="#575A89"/>
<path d="M52.6777 12.7274L54.0975 13.8461L59.8674 16.2953L58.9699 35.2761L61.4061 47.5218L57.9441 49.6648C57.9441 49.6648 57.303 43.8481 53.3282 40.9397C49.3533 38.0314 51.7709 13.5986 52.6777 12.7274Z" fill="#575A89"/>
<path d="M43.0705 42.4704L44.7374 43.8481C44.7374 43.8481 42.6217 46.5268 42.2371 46.0676C42.1258 45.94 42.0393 45.7847 41.9839 45.6128C41.9285 45.4408 41.9055 45.2564 41.9165 45.0726L41.5319 44.0011L43.0705 42.4704Z" fill="#FFB8B8"/>
<path d="M54.1513 42.1726L53.5846 43.2358C53.5846 43.2358 51.9177 44.1542 52.3024 44.7665C52.687 45.3788 55.8926 46.7564 56.5337 45.3788L57.1748 44.0011L54.1513 42.1726Z" fill="#FFB8B8"/>
<path d="M42.5577 18.4382L41.6601 18.5913L40.1856 29.9951C40.1856 29.9951 39.6086 32.0616 40.2497 36.9599C40.8908 41.8581 41.5257 45.0478 41.5257 45.0478L44.3528 42.6235L43.0706 38.6436L44.7374 24.1019L42.5577 18.4382Z" fill="#575A89"/>
<path d="M57.816 15.9891L59.8675 16.2952C59.8675 16.2952 62.1755 19.2036 62.5601 22.265C62.9448 25.3264 62.8166 34.0515 62.8166 34.0515L56.9184 45.2257L53.7129 42.4704L58.2006 32.98L56.0209 21.6527L57.816 15.9891Z" fill="#575A89"/>
<path d="M53.1378 2.6807C52.5174 1.47788 51.5462 0.591533 50.4112 0.192249L49.5775 0.988418L49.9016 0.059776C49.6291 0.0101376 49.3532 -0.00889572 49.0777 0.00292552L48.3276 1.15421L48.6381 0.0423612C47.9872 0.13892 47.3602 0.395426 46.7965 0.795702C46.2328 1.19598 45.7447 1.73134 45.363 2.36804C44.4083 4.01135 44.2472 6.29666 45.1862 7.95282C45.4439 7.00721 45.7567 6.11991 46.0145 5.17429C46.2171 5.20726 46.4224 5.20845 46.6252 5.17784L46.9388 4.30432L47.0264 5.14089C47.9984 5.03979 49.4401 4.81786 50.3615 4.6145L50.2719 3.97273L50.808 4.50604C51.0903 4.42844 51.2579 4.35809 51.2441 4.30432C51.9294 5.62324 52.6084 6.46567 53.2937 7.78458C53.5539 5.9242 54.0131 4.3778 53.1378 2.6807Z" fill="#2F2E41"/>
<path d="M52.9107 7.62028C53.0641 7.62028 53.1885 7.32336 53.1885 6.9571C53.1885 6.59083 53.0641 6.29391 52.9107 6.29391C52.7573 6.29391 52.6329 6.59083 52.6329 6.9571C52.6329 7.32336 52.7573 7.62028 52.9107 7.62028Z" fill="#FFB8B8"/>
<path d="M97.2911 93.5319C97.4092 98.3626 95.0449 100.133 92.0778 100.236C92.0089 100.239 91.9403 100.24 91.872 100.241C91.7344 100.242 91.5981 100.239 91.4632 100.233C88.7797 100.1 86.6556 98.3991 86.5457 93.9066C86.4319 89.2574 91.2657 83.2167 91.6284 82.7699L91.629 82.7694C91.6428 82.7524 91.6499 82.7439 91.6499 82.7439C91.6499 82.7439 97.1729 88.7017 97.2911 93.5319Z" fill="#6C63FF"/>
<path d="M91.8641 99.5043L93.7489 96.1581L91.868 99.8643L91.8719 100.241C91.7343 100.242 91.598 100.239 91.4631 100.233L91.5566 95.3926L91.554 95.3553L91.5575 95.348L91.5664 94.8907L89.5023 91.313L91.564 94.5484L91.5713 94.6451L91.6419 90.9882L89.8591 87.279L91.647 90.3458L91.6283 82.7699L91.6284 82.7447L91.629 82.7695L91.7473 88.7403L93.3722 86.315L91.7526 89.2547L91.7881 92.5257L93.2833 89.3333L91.7936 93.0065L91.8133 94.8253L93.9878 90.3785L91.82 95.4598L91.8641 99.5043Z" fill="#3F3D56"/>
<path d="M28.5646 86.3376C28.6828 91.1683 26.3185 92.9386 23.3514 93.042C23.2824 93.0444 23.2138 93.0459 23.1455 93.0465C23.0079 93.0477 22.8717 93.045 22.7367 93.0382C20.0533 92.9052 17.9291 91.2047 17.8192 86.7122C17.7055 82.0631 22.5393 76.0224 22.902 75.5755L22.9026 75.5751C22.9164 75.5581 22.9234 75.5496 22.9234 75.5496C22.9234 75.5496 28.4465 81.5073 28.5646 86.3376Z" fill="#6C63FF"/>
<path d="M23.1378 92.3099L25.0226 88.9638L23.1416 92.6699L23.1456 93.0464C23.008 93.0477 22.8717 93.0449 22.7368 93.0382L22.8303 88.1982L22.8277 88.1609L22.8312 88.1537L22.8401 87.6963L20.776 84.1187L22.8377 87.354L22.845 87.4507L22.9156 83.7939L21.1328 80.0847L22.9207 83.1515L22.902 75.5755L22.9021 75.5503L22.9027 75.5751L23.021 81.546L24.6458 79.1206L23.0263 82.0604L23.0618 85.3313L24.557 82.139L23.0673 85.8122L23.087 87.631L25.2614 83.1841L23.0936 88.2655L23.1378 92.3099Z" fill="#3F3D56"/>
<path d="M79.9194 100.342C79.9888 103.178 78.601 104.217 76.8593 104.278C76.8189 104.279 76.7786 104.28 76.7385 104.28C76.6578 104.281 76.5778 104.279 76.4986 104.275C74.9234 104.197 73.6766 103.199 73.6121 100.562C73.5454 97.8331 76.3827 94.2874 76.5956 94.0251L76.5959 94.0249C76.604 94.0149 76.6082 94.0099 76.6082 94.0099C76.6082 94.0099 79.8501 97.5069 79.9194 100.342Z" fill="#6C63FF"/>
<path d="M76.734 103.848L77.8403 101.884L76.7362 104.059L76.7385 104.28C76.6578 104.281 76.5778 104.279 76.4986 104.275L76.5535 101.434L76.552 101.412L76.554 101.408L76.5592 101.14L75.3477 99.0397L76.5578 100.939L76.5621 100.996L76.6036 98.8491L75.5571 96.6719L76.6065 98.472L76.5956 94.0251L76.5956 94.0103L76.596 94.0249L76.6654 97.5296L77.6192 96.106L76.6685 97.8316L76.6894 99.7515L77.567 97.8777L76.6926 100.034L76.7042 101.101L77.9805 98.4912L76.708 101.474L76.734 103.848Z" fill="#3F3D56"/>
<path d="M122.989 7.83526C122.992 7.8213 122.996 7.80717 123 7.79317C122.998 7.79931 122.996 7.80521 122.995 7.81137L122.989 7.83526Z" fill="#2F2E41"/>
<path d="M105.071 89.0581L114.568 72.1978L105.09 90.8719L105.11 92.7691C104.417 92.7754 103.73 92.7616 103.05 92.7278L103.521 68.3405L103.508 68.1524L103.526 68.116L103.571 65.8116L93.1705 47.7849L103.559 64.0868L103.596 64.5739L103.951 46.1484L94.9682 27.4588L103.977 42.9115L103.883 4.73861L103.883 4.61156L103.886 4.73651L104.482 34.8219L112.669 22.6012L104.509 37.4137L104.688 53.8949L112.222 37.8099L104.716 56.3179L104.815 65.4823L115.771 43.0761L104.848 68.6794L105.071 89.0581Z" fill="#3F3D56"/>
<path d="M8.09782 88.4045L14.5603 76.9316L8.11103 89.6388L8.12452 90.9298C7.65273 90.9341 7.18553 90.9247 6.72291 90.9016L7.04344 74.3068L7.03466 74.1788L7.04648 74.1541L7.07716 72.5859L0 60.3193L7.06882 71.4123L7.0939 71.7438L7.336 59.2057L1.22323 46.488L7.35341 57.0031L7.28942 31.0276L7.28956 30.9411L7.29164 31.0261L7.69742 51.4984L13.2685 43.1825L7.71566 53.262L7.83725 64.477L12.9638 53.5316L7.85609 66.1258L7.92377 72.3619L15.3791 57.1151L7.94643 74.5374L8.09782 88.4045Z" fill="#3F3D56"/>
</g>
<defs>
<clipPath id="clip0_2_142">
<rect width="123" height="105" fill="white"/>
</clipPath>
</defs>
</svg>
