<svg width="26" height="26" viewBox="0 0 26 26" fill="none" xmlns="http://www.w3.org/2000/svg">
<path d="M5.41699 19.5V23.5798L7.05824 22.5951L12.2171 19.5H17.3337C18.5286 19.5 19.5003 18.5283 19.5003 17.3333V8.66667C19.5003 7.47175 18.5286 6.5 17.3337 6.5H4.33366C3.13874 6.5 2.16699 7.47175 2.16699 8.66667V17.3333C2.16699 18.5283 3.13874 19.5 4.33366 19.5H5.41699ZM4.33366 8.66667H17.3337V17.3333H11.6169L7.58366 19.7535V17.3333H4.33366V8.66667Z" fill="#818286"/>
<path d="M21.6667 2.16663H8.66667C7.47175 2.16663 6.5 3.13838 6.5 4.33329H19.5C20.6949 4.33329 21.6667 5.30504 21.6667 6.49996V15.1666C22.8616 15.1666 23.8333 14.1949 23.8333 13V4.33329C23.8333 3.13838 22.8616 2.16663 21.6667 2.16663Z" fill="#818286"/>
</svg>
