<svg width="123" height="116" viewBox="0 0 123 116" fill="none" xmlns="http://www.w3.org/2000/svg">
<g clip-path="url(#clip0_1_64)">
<path d="M12.1829 107.395C11.0623 111.469 12.8015 115.634 12.8015 115.634C12.8015 115.634 16.3577 113.194 17.4784 109.12C18.5991 105.046 16.8598 100.88 16.8598 100.88C16.8598 100.88 13.3036 103.321 12.1829 107.395Z" fill="#F2F2F2"/>
<path d="M13.8845 107.505C14.8277 111.632 12.9101 115.704 12.9101 115.704C12.9101 115.704 9.46342 113.084 8.52023 108.957C7.57705 104.83 9.49454 100.758 9.49454 100.758C9.49454 100.758 12.9413 103.378 13.8845 107.505Z" fill="#F2F2F2"/>
<path d="M69.9358 111.603L70.649 109.606L63.9113 105.661L62.8586 108.608L69.9358 111.603Z" fill="#FFB8B8"/>
<path d="M73.7577 106.394C73.4553 106.265 73.1327 106.203 72.8083 106.211C72.4839 106.219 72.164 106.296 71.867 106.438C71.57 106.58 71.3017 106.785 71.0774 107.04C70.8531 107.295 70.6772 107.596 70.5598 107.925L70.0786 109.272L69.3367 111.349L69.1553 111.859L71.5328 112.865L73.8325 106.426L73.7577 106.394Z" fill="#2F2E41"/>
<path d="M69.337 107.76L69.0267 108.655L68.2525 110.89L68.2339 110.946C66.2612 111.222 64.0987 110.681 62.0985 109.841C61.2983 109.505 60.5144 109.124 59.7502 108.7C58.6191 108.078 57.6063 107.422 56.7983 106.861C55.5818 106.011 54.8296 105.373 54.8296 105.373C54.8296 105.373 54.6309 105.568 54.2713 105.903C53.7894 106.352 53.0192 107.053 52.0437 107.878C51.6716 108.195 51.272 108.526 50.845 108.872C47.6976 111.413 43.6584 104.633 43.6584 104.633C43.6584 104.633 44.7944 103.846 45.0912 103.694C46.0468 103.201 48.2918 102.04 50.2287 101.009C51.2265 100.476 52.1414 99.9771 52.7557 99.6224C54.9308 98.3621 57.6346 100.747 57.6346 100.747L69.337 107.76Z" fill="#2F2E41"/>
<path opacity="0.14" d="M69.337 107.76L69.0267 108.655L68.2525 110.89L68.2339 110.946C66.2612 111.222 64.0987 110.681 62.0985 109.841C61.2983 109.505 60.5144 109.124 59.7502 108.7C58.6191 108.078 57.6063 107.422 56.7983 106.861C55.5818 106.011 54.8296 105.373 54.8296 105.373C54.8296 105.373 54.6309 105.568 54.2713 105.903C53.7894 106.352 53.0192 107.053 52.0437 107.878C51.6716 108.195 51.272 108.526 50.845 108.872C47.6976 111.413 43.6584 104.633 43.6584 104.633C43.6584 104.633 44.7944 103.846 45.0912 103.694C46.0468 103.201 48.2918 102.04 50.2287 101.009C51.2265 100.476 52.1414 99.9771 52.7557 99.6224C54.9308 98.3621 57.6346 100.747 57.6346 100.747L69.337 107.76Z" fill="black"/>
<path d="M29.4781 60.2252C44.7591 60.2252 57.1469 46.7434 57.1469 30.1126C57.1469 13.4819 44.7591 0 29.4781 0C14.197 0 1.8092 13.4819 1.8092 30.1126C1.8092 46.7434 14.197 60.2252 29.4781 60.2252Z" fill="#6C63FF"/>
<path opacity="0.2" d="M9.04825 9.99976C6.46737 16.5701 6.11726 23.9252 8.06048 30.7506C10.0037 37.576 14.1136 43.4271 19.6558 47.2582C25.1981 51.0894 31.8114 52.6509 38.3141 51.6638C44.8169 50.6768 50.7852 47.2054 55.1527 41.8701C53.5761 45.8843 51.2165 49.4775 48.2372 52.4007C45.258 55.3238 41.7304 57.5072 37.8989 58.7993C34.0674 60.0915 30.0235 60.4616 26.0475 59.884C22.0715 59.3065 18.2584 57.795 14.8724 55.4544C11.4864 53.1138 8.60849 50 6.43802 46.3287C4.26754 42.6575 2.85642 38.5165 2.30242 34.1928C1.74841 29.8691 2.06478 25.466 3.22959 21.2885C4.3944 17.1111 6.37981 13.2592 9.04825 9.99976Z" fill="black"/>
<path d="M29.554 30.1125H29.6302L30.9984 115.487H28.1098L29.554 30.1125Z" fill="#3F3D56"/>
<path d="M25.2948 68.8319L24.6574 70.1495L29.2311 72.7702L29.8685 71.4525L25.2948 68.8319Z" fill="#3F3D56"/>
<path d="M122.839 115.827H0.160574C0.117987 115.827 0.0771446 115.808 0.047031 115.775C0.0169175 115.743 0 115.698 0 115.652C0 115.606 0.0169175 115.561 0.047031 115.528C0.0771446 115.496 0.117987 115.477 0.160574 115.477H122.839C122.882 115.477 122.923 115.496 122.953 115.528C122.983 115.561 123 115.606 123 115.652C123 115.698 122.983 115.743 122.953 115.775C122.923 115.808 122.882 115.827 122.839 115.827Z" fill="#3F3D56"/>
<path d="M37.8548 88.9645H28.5415C28.3499 88.9643 28.1662 88.8814 28.0308 88.7339C27.8953 88.5865 27.8191 88.3866 27.8189 88.1781V83.8092C27.8189 82.2565 28.3856 80.7675 29.3944 79.6696C30.4032 78.5717 31.7715 77.9549 33.1981 77.9549C34.6248 77.9549 35.993 78.5717 37.0018 79.6696C38.0106 80.7675 38.5774 82.2565 38.5774 83.8092V88.1781C38.5771 88.3866 38.5009 88.5865 38.3655 88.7339C38.23 88.8814 38.0464 88.9643 37.8548 88.9645Z" fill="#2F2E41"/>
<path d="M46.7117 94.4522C46.4949 94.4936 46.289 94.5863 46.1087 94.7237C45.9284 94.861 45.7779 95.0398 45.6679 95.2473C45.5579 95.4548 45.491 95.686 45.472 95.9247C45.453 96.1634 45.4823 96.4037 45.5579 96.6287L43.0254 99.1637L44.0655 101.214L47.5957 97.5798C47.9346 97.4166 48.2067 97.1237 48.3605 96.7568C48.5143 96.3898 48.539 95.9742 48.4301 95.5887C48.3211 95.2032 48.086 94.8745 47.7693 94.6651C47.4526 94.4556 47.0763 94.3799 46.7117 94.4522Z" fill="#FFB8B8"/>
<path d="M39.0915 105.978C38.9771 105.978 38.8626 105.972 38.7478 105.962C38.0647 105.9 37.4072 105.65 36.8371 105.235C36.267 104.821 35.803 104.256 35.4886 103.593L31.4313 95.0938C31.1654 94.5369 31.107 93.8899 31.2683 93.2874C31.4296 92.6849 31.7981 92.1732 32.2972 91.8589C32.7963 91.5445 33.3875 91.4517 33.9479 91.5997C34.5083 91.7476 34.9947 92.125 35.3059 92.6533L39.049 101.794L44.1423 97.2899L47.0914 98.5393L42.111 104.523C41.7281 104.981 41.2619 105.346 40.742 105.597C40.2221 105.847 39.66 105.977 39.0915 105.978Z" fill="#CCCCCC"/>
<path d="M54.0997 92.8456L49.5873 87.9347C49.4294 87.7629 49.2153 87.6664 48.9921 87.6664C48.7688 87.6664 48.5547 87.7629 48.3969 87.9347L44.3376 92.3525C44.1797 92.5243 44.0911 92.7573 44.0911 93.0003C44.0911 93.2432 44.1797 93.4762 44.3376 93.648L48.5537 98.2365C48.7041 98.4001 48.9057 98.4958 49.1182 98.5042C49.3307 98.5126 49.5383 98.4332 49.6992 98.2819L54.0548 94.1866C54.1384 94.1079 54.207 94.0121 54.2566 93.9046C54.3062 93.7971 54.3359 93.6801 54.344 93.5601C54.352 93.4401 54.3383 93.3196 54.3035 93.2054C54.2688 93.0912 54.2137 92.9855 54.1414 92.8945C54.1281 92.8777 54.1141 92.8614 54.0997 92.8456Z" fill="#3F3D56"/>
<path d="M53.4608 93.7068L48.8161 88.652L44.983 92.8236L49.4475 97.6822L53.4608 93.7068Z" fill="#F2F2F2"/>
<path d="M49.1454 95.1781C50.187 95.1781 51.0315 94.259 51.0315 93.1253C51.0315 91.9917 50.187 91.0726 49.1454 91.0726C48.1037 91.0726 47.2592 91.9917 47.2592 93.1253C47.2592 94.259 48.1037 95.1781 49.1454 95.1781Z" fill="#6C63FF"/>
<path opacity="0.1" d="M49.9849 94.8749C50.3004 94.5522 50.5043 94.1213 50.5624 93.6544C50.6205 93.1875 50.5292 92.713 50.3039 92.3107C50.0785 91.9083 49.7329 91.6026 49.325 91.4448C48.917 91.287 48.4716 91.2867 48.0635 91.4441C48.284 91.2761 48.5349 91.1613 48.7995 91.1076C49.0641 91.0539 49.3362 91.0624 49.5975 91.1327C49.8588 91.2029 50.1033 91.3332 50.3145 91.5148C50.5257 91.6963 50.6988 91.925 50.822 92.1854C50.9453 92.4458 51.0159 92.7319 51.0291 93.0245C51.0424 93.3171 50.9979 93.6094 50.8988 93.8817C50.7996 94.154 50.648 94.4001 50.4542 94.6034C50.2604 94.8066 50.0289 94.9624 49.7752 95.0602C49.849 95.004 49.9191 94.942 49.9849 94.8749Z" fill="black"/>
<path d="M48.2181 92.7174C47.9931 92.9474 47.9812 93.7754 48.3247 94.1732C48.6681 94.571 49.2368 94.388 49.4617 94.158C49.6867 93.928 49.4826 93.7381 49.1392 93.3403C48.7958 92.9425 48.443 92.4874 48.2181 92.7174Z" fill="#F2F2F2"/>
<path d="M50.1328 93.767C50.4414 93.767 50.6916 93.4947 50.6916 93.1588C50.6916 92.8229 50.4414 92.5506 50.1328 92.5506C49.8241 92.5506 49.5739 92.8229 49.5739 93.1588C49.5739 93.4947 49.8241 93.767 50.1328 93.767Z" fill="#2F2E41"/>
<path d="M49.1283 92.6035C49.4369 92.6035 49.6871 92.3312 49.6871 91.9953C49.6871 91.6594 49.4369 91.3871 49.1283 91.3871C48.8196 91.3871 48.5694 91.6594 48.5694 91.9953C48.5694 92.3312 48.8196 92.6035 49.1283 92.6035Z" fill="#2F2E41"/>
<path d="M50.1328 93.3109C50.21 93.3109 50.2725 93.2428 50.2725 93.1588C50.2725 93.0748 50.21 93.0068 50.1328 93.0068C50.0556 93.0068 49.9931 93.0748 49.9931 93.1588C49.9931 93.2428 50.0556 93.3109 50.1328 93.3109Z" fill="#F2F2F2"/>
<path d="M50.1929 92.8604C50.2315 92.8604 50.2628 92.8263 50.2628 92.7844C50.2628 92.7424 50.2315 92.7083 50.1929 92.7083C50.1544 92.7083 50.1231 92.7424 50.1231 92.7844C50.1231 92.8263 50.1544 92.8604 50.1929 92.8604Z" fill="#F2F2F2"/>
<path d="M49.1884 91.6969C49.227 91.6969 49.2583 91.6628 49.2583 91.6208C49.2583 91.5789 49.227 91.5448 49.1884 91.5448C49.1498 91.5448 49.1185 91.5789 49.1185 91.6208C49.1185 91.6628 49.1498 91.6969 49.1884 91.6969Z" fill="#F2F2F2"/>
<path d="M49.1283 92.1474C49.2054 92.1474 49.268 92.0793 49.268 91.9953C49.268 91.9113 49.2054 91.8432 49.1283 91.8432C49.0511 91.8432 48.9886 91.9113 48.9886 91.9953C48.9886 92.0793 49.0511 92.1474 49.1283 92.1474Z" fill="#F2F2F2"/>
<path d="M69.3665 114.411L70.2187 112.48L63.7795 107.984L62.5217 110.834L69.3665 114.411Z" fill="#FFB8B8"/>
<path d="M73.545 109.537C73.2526 109.384 72.9353 109.295 72.6113 109.276C72.2873 109.256 71.963 109.307 71.6568 109.424C71.3506 109.541 71.0687 109.722 70.827 109.958C70.5854 110.193 70.3888 110.479 70.2484 110.797L69.6736 112.099L68.7872 114.109L68.5704 114.602L70.8698 115.804L73.6173 109.576L73.545 109.537Z" fill="#2F2E41"/>
<path d="M69.0409 110.53L68.6684 111.397L67.7387 113.56L67.7162 113.614C65.7299 113.724 63.6119 113.004 61.677 111.999C60.9028 111.598 60.1482 111.153 59.4161 110.666C58.3322 109.951 57.3688 109.212 56.6028 108.585C55.4499 107.636 54.745 106.937 54.745 106.937C54.745 106.937 54.5331 107.115 54.1509 107.419C53.6386 107.826 52.8213 108.461 51.7904 109.202C51.397 109.486 50.9752 109.784 50.5251 110.093C47.2076 112.363 42.49 115.128 38.4772 115.711C31.4296 116.737 33.0883 106.502 33.0883 106.502L38.6972 103.332L41.0785 103.858L43.7296 104.441L44.6689 104.649C44.6689 104.649 44.8472 104.576 45.1539 104.448C46.1414 104.038 48.4617 103.068 50.4657 102.201C51.4982 101.753 52.4456 101.332 53.083 101.03C55.3407 99.9552 57.8682 102.559 57.8682 102.559L69.0409 110.53Z" fill="#2F2E41"/>
<path d="M22.8248 115.956C23.0394 115.902 23.2405 115.798 23.4141 115.651C23.5876 115.503 23.7294 115.316 23.8294 115.103C23.9294 114.889 23.9852 114.655 23.9929 114.415C24.0005 114.176 23.9598 113.938 23.8737 113.717L26.2824 111.043L25.1462 109.054L21.7934 112.882C21.4627 113.064 21.2048 113.372 21.0687 113.747C20.9325 114.122 20.9276 114.539 21.0547 114.917C21.1818 115.296 21.4322 115.611 21.7585 115.803C22.0847 115.994 22.4641 116.048 22.8248 115.956Z" fill="#FFB8B8"/>
<path d="M34.5167 89.1596C36.5907 89.1596 38.272 87.3298 38.272 85.0727C38.272 82.8156 36.5907 80.9858 34.5167 80.9858C32.4428 80.9858 30.7615 82.8156 30.7615 85.0727C30.7615 87.3298 32.4428 89.1596 34.5167 89.1596Z" fill="#FFB8B8"/>
<path d="M29.6313 96.4174L32.9025 106.511L32.8829 106.546C32.4279 107.365 32.2792 108.025 32.4529 108.455C32.4987 108.565 32.5657 108.662 32.6494 108.741C32.733 108.819 32.8314 108.877 32.9376 108.91L40.6787 103.022L40.4076 100.662L40.4227 100.635C41.1709 99.3323 41.4132 98.1524 41.1429 97.1283C40.7922 95.7995 39.6776 95.1962 39.6664 95.1902L39.6394 95.1671L35.7784 90.0528L30.6172 91.0508L29.6313 96.4174Z" fill="#CCCCCC"/>
<path d="M24.6567 114.133L22.4653 111.198L27.7481 101.707L30.2111 93.4215C30.3456 92.9689 30.5678 92.5529 30.8625 92.2015C31.1573 91.8502 31.5178 91.5718 31.9199 91.3849C32.3219 91.1981 32.756 91.1072 33.193 91.1184C33.63 91.1296 34.0598 91.2427 34.4532 91.4499C34.8467 91.6572 35.1948 91.9538 35.474 92.3198C35.7533 92.6859 35.9572 93.1128 36.072 93.5718C36.1868 94.0309 36.2099 94.5113 36.1396 94.9809C36.0694 95.4505 35.9074 95.8982 35.6648 96.2939L31.143 103.667L24.6567 114.133Z" fill="#CCCCCC"/>
<path d="M39.85 84.2461H34.1551L34.0967 83.3563L33.8047 84.2461H32.9278L32.8121 82.4825L32.2334 84.2461H30.5367V84.1587C30.5379 82.9309 30.9866 81.7538 31.7844 80.8856C32.5821 80.0174 33.6637 79.5291 34.7918 79.5277H35.5947C36.7229 79.5291 37.8045 80.0174 38.6022 80.8856C39.4 81.7538 39.8487 82.9309 39.85 84.1587V84.2461Z" fill="#2F2E41"/>
<path d="M34.1085 89.7801C34.0656 89.78 34.0228 89.7759 33.9806 89.7678L29.8106 88.9671V81.4665H34.401L34.2873 81.6107C32.7061 83.6177 33.8974 86.872 34.7482 88.6332C34.8109 88.7622 34.8389 88.9079 34.8289 89.0534C34.8189 89.1989 34.7713 89.3384 34.6916 89.4558C34.6249 89.5562 34.5373 89.6379 34.4359 89.6943C34.3345 89.7507 34.2223 89.7801 34.1085 89.7801Z" fill="#2F2E41"/>
<path d="M94.4401 76.6639C104.55 76.6639 112.746 67.7444 112.746 56.7417C112.746 45.7389 104.55 36.8194 94.4401 36.8194C84.3303 36.8194 76.1346 45.7389 76.1346 56.7417C76.1346 67.7444 84.3303 76.6639 94.4401 76.6639Z" fill="#3F3D56"/>
<path d="M89.7598 48.998V65.9478C89.7558 66.0263 89.7714 66.1045 89.8049 66.1742C89.8384 66.2439 89.8885 66.3024 89.9501 66.3436C90.0116 66.3848 90.0822 66.4072 90.1544 66.4083C90.2267 66.4094 90.2978 66.3893 90.3604 66.3501L102.706 57.8751C102.766 57.8313 102.816 57.7719 102.85 57.7022C102.884 57.6325 102.902 57.5547 102.902 57.4757C102.902 57.3967 102.884 57.3189 102.85 57.2492C102.816 57.1795 102.766 57.1201 102.706 57.0762L90.3604 48.6013C90.2984 48.5609 90.2275 48.5397 90.1552 48.5399C90.0829 48.5402 90.0121 48.5618 89.9503 48.6026C89.8885 48.6435 89.8381 48.7018 89.8046 48.7715C89.771 48.8411 89.7555 48.9194 89.7598 48.998Z" fill="#F2F2F2"/>
</g>
<defs>
<clipPath id="clip0_1_64">
<rect width="123" height="116" fill="white"/>
</clipPath>
</defs>
</svg>
