<svg width="123" height="80" viewBox="0 0 123 80" fill="none" xmlns="http://www.w3.org/2000/svg">
<g clip-path="url(#clip0_2_203)">
<path d="M9.25404 79.96L9.1246 79.6837C10.8602 78.5999 13.0203 77.2512 14.1485 75.0378C15.2607 72.856 15.2857 69.8931 14.2137 67.3055C13.3014 65.1033 11.6255 63.1303 9.36731 61.5998C8.92188 61.2979 8.45431 61.0118 8.00211 60.7351C6.9091 60.0663 5.77887 59.3746 4.84693 58.3935C3.56337 57.042 2.59219 54.7741 3.31604 52.754C3.5541 52.1092 3.94398 51.5545 4.44139 51.1526C4.93881 50.7508 5.52385 50.5181 6.13007 50.4808L6.14542 50.7946C5.59005 50.8286 5.05405 51.0417 4.59826 51.4096C4.14247 51.7776 3.78513 52.2857 3.5668 52.8762C2.89415 54.7535 3.81702 56.8837 5.03034 58.1613C5.93679 59.1156 7.05154 59.7978 8.12957 60.4574C8.58432 60.7357 9.05459 61.0235 9.50513 61.3288C11.8103 62.8912 13.5234 64.911 14.4592 67.1699C15.5698 69.8505 15.5406 72.9265 14.3831 75.1973C13.2164 77.486 11.0194 78.8578 9.25404 79.96Z" fill="#F1F1F1"/>
<path d="M7.8551 52.1371C9.17042 52.1371 10.2367 51.5391 10.2367 50.8015C10.2367 50.0639 9.17042 49.4659 7.8551 49.4659C6.53979 49.4659 5.47351 50.0639 5.47351 50.8015C5.47351 51.5391 6.53979 52.1371 7.8551 52.1371Z" fill="#F1F1F1"/>
<path d="M9.76038 60.9362C11.0757 60.9362 12.142 60.3382 12.142 59.6006C12.142 58.863 11.0757 58.265 9.76038 58.265C8.44506 58.265 7.37878 58.863 7.37878 59.6006C7.37878 60.3382 8.44506 60.9362 9.76038 60.9362Z" fill="#F1F1F1"/>
<path d="M5.40552 62.3503C6.72084 62.3503 7.78711 61.7524 7.78711 61.0148C7.78711 60.2772 6.72084 59.6792 5.40552 59.6792C4.0902 59.6792 3.02393 60.2772 3.02393 61.0148C3.02393 61.7524 4.0902 62.3503 5.40552 62.3503Z" fill="#F1F1F1"/>
<path d="M12.2101 69.7352C13.5254 69.7352 14.5917 69.1373 14.5917 68.3997C14.5917 67.662 13.5254 67.0641 12.2101 67.0641C10.8948 67.0641 9.82849 67.662 9.82849 68.3997C9.82849 69.1373 10.8948 69.7352 12.2101 69.7352Z" fill="#F1F1F1"/>
<path d="M16.9733 69.7352C18.2886 69.7352 19.3549 69.1373 19.3549 68.3997C19.3549 67.662 18.2886 67.0641 16.9733 67.0641C15.658 67.0641 14.5917 67.662 14.5917 68.3997C14.5917 69.1373 15.658 69.7352 16.9733 69.7352Z" fill="#F1F1F1"/>
<path d="M123 2.42432H46.4086V44.3859H123V2.42432Z" fill="#E6E6E6"/>
<path d="M120.81 6.02258H48.5988V41.0324H120.81V6.02258Z" fill="white"/>
<path d="M122.967 0H46.3759V3.75677H122.967V0Z" fill="#6C63FF"/>
<path d="M48.7939 2.43399C49.127 2.43399 49.397 2.12224 49.397 1.73768C49.397 1.35313 49.127 1.04138 48.7939 1.04138C48.4608 1.04138 48.1908 1.35313 48.1908 1.73768C48.1908 2.12224 48.4608 2.43399 48.7939 2.43399Z" fill="white"/>
<path d="M51.0829 2.43399C51.416 2.43399 51.686 2.12224 51.686 1.73768C51.686 1.35313 51.416 1.04138 51.0829 1.04138C50.7499 1.04138 50.4799 1.35313 50.4799 1.73768C50.4799 2.12224 50.7499 2.43399 51.0829 2.43399Z" fill="white"/>
<path d="M53.3723 2.43399C53.7053 2.43399 53.9753 2.12224 53.9753 1.73768C53.9753 1.35313 53.7053 1.04138 53.3723 1.04138C53.0392 1.04138 52.7692 1.35313 52.7692 1.73768C52.7692 2.12224 53.0392 2.43399 53.3723 2.43399Z" fill="white"/>
<path d="M80.8969 14.3312C80.8194 14.3312 80.7451 14.3667 80.6903 14.43C80.6355 14.4932 80.6047 14.579 80.6047 14.6685C80.6047 14.758 80.6355 14.8438 80.6903 14.907C80.7451 14.9703 80.8194 15.0058 80.8969 15.0058H96.929C97.0064 15.0058 97.0808 14.9703 97.1356 14.907C97.1903 14.8438 97.2211 14.758 97.2211 14.6685C97.2211 14.579 97.1903 14.4932 97.1356 14.43C97.0808 14.3667 97.0064 14.3312 96.929 14.3312H80.8969Z" fill="#E6E6E6"/>
<path d="M80.8969 16.3553C80.8195 16.3555 80.7454 16.3912 80.6907 16.4544C80.636 16.5176 80.6053 16.6033 80.6053 16.6927C80.6053 16.782 80.636 16.8677 80.6907 16.931C80.7454 16.9942 80.8195 17.0298 80.8969 17.03H89.0816C89.159 17.0298 89.2331 16.9942 89.2878 16.931C89.3424 16.8677 89.3731 16.782 89.3731 16.6927C89.3731 16.6033 89.3424 16.5176 89.2878 16.4544C89.2331 16.3912 89.159 16.3555 89.0816 16.3553H80.8969Z" fill="#E6E6E6"/>
<path d="M80.4935 26.1527C80.416 26.1527 80.3417 26.1883 80.2869 26.2515C80.2321 26.3148 80.2013 26.4006 80.2013 26.49C80.2013 26.5795 80.2321 26.6653 80.2869 26.7286C80.3417 26.7918 80.416 26.8274 80.4935 26.8274H110.554C110.631 26.8274 110.705 26.7918 110.76 26.7286C110.815 26.6653 110.846 26.5795 110.846 26.49C110.846 26.4006 110.815 26.3148 110.76 26.2515C110.705 26.1883 110.631 26.1527 110.554 26.1527H80.4935Z" fill="#E6E6E6"/>
<path d="M80.4934 28.1769C80.4161 28.1771 80.3419 28.2127 80.2873 28.2759C80.2326 28.3392 80.2019 28.4249 80.2019 28.5142C80.2019 28.6036 80.2326 28.6892 80.2873 28.7525C80.3419 28.8157 80.4161 28.8513 80.4934 28.8515H102.706C102.784 28.8513 102.858 28.8157 102.912 28.7525C102.967 28.6892 102.998 28.6036 102.998 28.5142C102.998 28.4249 102.967 28.3392 102.912 28.2759C102.858 28.2127 102.784 28.1771 102.706 28.1769H80.4934Z" fill="#E6E6E6"/>
<path d="M80.4934 30.1552C80.4161 30.1553 80.3419 30.191 80.2873 30.2542C80.2326 30.3174 80.2019 30.4031 80.2019 30.4925C80.2019 30.5818 80.2326 30.6675 80.2873 30.7308C80.3419 30.794 80.4161 30.8296 80.4934 30.8298H110.554C110.631 30.8296 110.705 30.794 110.76 30.7308C110.814 30.6675 110.845 30.5818 110.845 30.4925C110.845 30.4031 110.814 30.3174 110.76 30.2542C110.705 30.191 110.631 30.1553 110.554 30.1552H80.4934Z" fill="#E6E6E6"/>
<path d="M80.4934 32.1794C80.4161 32.1796 80.3419 32.2153 80.2873 32.2785C80.2326 32.3417 80.2019 32.4274 80.2019 32.5168C80.2019 32.6061 80.2326 32.6918 80.2873 32.755C80.3419 32.8183 80.4161 32.8539 80.4934 32.8541H102.706C102.784 32.8539 102.858 32.8183 102.912 32.755C102.967 32.6918 102.998 32.6061 102.998 32.5168C102.998 32.4274 102.967 32.3417 102.912 32.2785C102.858 32.2153 102.784 32.1796 102.706 32.1794H80.4934Z" fill="#E6E6E6"/>
<path d="M64.7778 27.5217C66.1828 27.5217 67.3219 26.2066 67.3219 24.5843C67.3219 22.9621 66.1828 21.647 64.7778 21.647C63.3727 21.647 62.2336 22.9621 62.2336 24.5843C62.2336 26.2066 63.3727 27.5217 64.7778 27.5217Z" fill="#A0616A"/>
<path d="M63.9722 22.2344C63.9722 22.2344 65.1594 22.6016 65.7743 22.7485C66.3891 22.8954 66.3255 22.4792 66.3255 22.4792C66.3255 22.4792 67.1311 22.6016 67.0887 22.5037C67.0463 22.4058 67.4279 21.8918 66.9827 21.3043C66.5375 20.7168 66.6647 20.2762 66.6647 20.2762H66.2831L66.1771 20.1049H65.5834C65.5834 20.1049 64.9271 19.4404 63.7611 19.6362C62.595 19.832 61.216 20.3496 61.0888 21.1574C61.0716 21.267 61.0488 21.3887 61.0225 21.5173C60.7036 23.0715 61.3811 24.5257 62.0838 25.9015C62.2565 26.2396 63.0918 26.9769 63.0704 26.4711C63.049 25.9652 62.3185 24.8291 62.8273 24.7557C63.3361 24.6822 64.2054 23.1891 63.9722 22.2344Z" fill="#2F2E41"/>
<path d="M63.3346 34.0803C62.8435 34.0349 62.3564 33.9425 61.8785 33.8041L61.9053 33.2183L62.1281 28.5607L62.1301 28.525H66.6117L67.315 32.8135L67.4098 33.3921C67.2242 33.4755 67.0365 33.554 66.8448 33.6231C66.8427 33.6231 66.8427 33.6255 66.8406 33.6255C66.5746 33.7207 66.3044 33.8041 66.0321 33.8731C65.6701 33.9633 65.3037 34.0285 64.935 34.0684C64.6499 34.101 64.3636 34.1169 64.0771 34.116C63.8295 34.116 63.58 34.1041 63.3346 34.0803Z" fill="#6C63FF"/>
<path d="M60.4534 33.2517C60.2678 33.1588 60.0883 33.0588 59.911 32.954L59.8347 32.9088C59.7831 32.8778 59.7295 32.8445 59.678 32.8112C59.6078 32.7659 59.5397 32.7207 59.4737 32.6755C59.4098 32.6326 59.3438 32.5873 59.2799 32.5421C59.2758 32.5397 59.2737 32.5373 59.2696 32.5373C59.0469 32.373 58.8282 32.204 58.6179 32.0206C58.5828 31.9897 58.5478 31.9587 58.5126 31.9278L58.4756 31.242L58.5292 31.2039L62.1281 28.5608L62.1775 28.5251L62.1816 28.5227L62.689 28.5251V30.7062C62.9757 31.1848 63.1695 32.1873 63.2892 33.4993C63.3057 33.6874 63.3201 33.8803 63.3346 34.0803C62.8434 34.035 62.3564 33.9426 61.8785 33.8041C61.827 33.7922 61.7774 33.7779 61.7259 33.7613C61.4253 33.6704 61.1293 33.5607 60.8391 33.4327C60.7504 33.3945 60.6637 33.3541 60.5771 33.3136L60.5689 33.3088C60.5317 33.2898 60.4905 33.2707 60.4534 33.2517Z" fill="#2F2E41"/>
<path d="M59.678 32.8111C59.6078 32.7659 59.5397 32.7206 59.4738 32.6754C59.4098 32.6325 59.3439 32.5873 59.2799 32.5421C59.2758 32.5397 59.2738 32.5373 59.2697 32.5373C59.0469 32.373 58.8283 32.2039 58.6179 32.0206C58.5829 31.9896 58.5478 31.9587 58.5127 31.9277C58.4963 31.911 58.4798 31.8968 58.4611 31.8801C58.3292 31.7634 58.2013 31.642 58.0776 31.5134C58.0714 31.5086 58.0673 31.5015 58.061 31.4967C58.186 31.3858 58.3261 31.2997 58.4756 31.2419L58.6221 31.292L59.6656 31.6539L59.6718 32.142L59.678 32.8111Z" fill="#2F2E41"/>
<path d="M68.4658 32.8182C68.4039 32.8563 68.342 32.8944 68.2802 32.9302C68.2657 32.9397 68.2534 32.9468 68.241 32.954C68.1585 33.0016 68.0781 33.0492 67.9956 33.0945C67.9935 33.0968 67.9894 33.0968 67.9894 33.0992C67.9853 33.1016 67.9791 33.104 67.975 33.1064C67.7894 33.2088 67.6017 33.304 67.4098 33.3921C67.2242 33.4754 67.0365 33.554 66.8448 33.6231C66.8427 33.6231 66.8427 33.6255 66.8407 33.6255C66.5746 33.7207 66.3044 33.804 66.0321 33.8731C66.0291 33.6775 66.0514 33.4825 66.0982 33.2945L66.1002 33.2611L66.2776 29.9466L66.0404 28.525L66.721 28.4083L70.4642 30.7347C70.4642 30.7347 70.0518 31.211 68.3586 32.2253C68.2088 32.315 68.4286 32.6135 68.4658 32.8182Z" fill="#2F2E41"/>
<path d="M64.8897 33.4969C64.6215 33.5254 64.3493 33.5397 64.0771 33.5397C63.813 33.5397 63.5511 33.5278 63.2892 33.4992C63.3057 33.6874 63.3201 33.8802 63.3346 34.0802C63.58 34.1041 63.8296 34.116 64.0771 34.116C64.3636 34.1169 64.6499 34.101 64.935 34.0683C65.3037 34.0285 65.6701 33.9633 66.0321 33.8731C66.0291 33.6775 66.0513 33.4825 66.0982 33.2945L66.1002 33.2611C65.7021 33.373 65.2975 33.4518 64.8897 33.4969ZM72.6833 20.1338C72.2475 18.6884 71.5439 17.3702 70.6214 16.271C69.699 15.1719 68.5801 14.3182 67.3426 13.7696C66.1051 13.2211 64.7788 12.9908 63.4563 13.0948C62.1338 13.1988 60.8469 13.6346 59.6852 14.3718C58.5236 15.1091 57.5152 16.13 56.7304 17.3634C55.9456 18.5968 55.4033 20.0131 55.1413 21.5133C54.8792 23.0136 54.9038 24.5618 55.2132 26.05C55.5227 27.5382 56.1096 28.9305 56.933 30.1299C57.0154 30.249 57.1 30.368 57.1866 30.4823C57.1949 30.4918 57.199 30.499 57.2052 30.5061C57.4181 30.7896 57.6446 31.0591 57.8837 31.3133C57.9415 31.3752 58.0012 31.4372 58.061 31.4967C58.0673 31.5014 58.0714 31.5086 58.0775 31.5134C58.2013 31.6419 58.3292 31.7634 58.4611 31.8801C58.4798 31.8967 58.4963 31.911 58.5127 31.9277C58.5478 31.9586 58.5829 31.9896 58.6179 32.0205C58.8283 32.2039 59.0469 32.373 59.2697 32.5373C59.2738 32.5373 59.2758 32.5396 59.2799 32.542C59.3439 32.5873 59.4098 32.6325 59.4738 32.6754C59.5398 32.7206 59.6079 32.7658 59.678 32.8111C59.7296 32.8444 59.7831 32.8778 59.8347 32.9087L59.911 32.954C60.0884 33.0587 60.2678 33.1587 60.4534 33.2516C60.4906 33.2707 60.5318 33.2897 60.5689 33.3087L60.5772 33.3135C60.6638 33.354 60.7504 33.3945 60.8391 33.4326C61.1293 33.5607 61.4253 33.6704 61.7259 33.7612C61.7774 33.7778 61.827 33.7921 61.8785 33.804C62.3564 33.9425 62.8435 34.0349 63.3346 34.0802C63.58 34.1041 63.8296 34.116 64.0771 34.116C64.3636 34.1169 64.6499 34.101 64.935 34.0683C65.3037 34.0285 65.6701 33.9633 66.0321 33.8731C66.3044 33.804 66.5746 33.7207 66.8406 33.6254C66.8427 33.6254 66.8427 33.6231 66.8448 33.6231C67.0365 33.554 67.2242 33.4754 67.4098 33.3921C67.6017 33.304 67.7894 33.2087 67.975 33.1064C67.9791 33.104 67.9852 33.1016 67.9894 33.0992C67.9894 33.0968 67.9935 33.0968 67.9956 33.0944C68.0781 33.0492 68.1584 33.0016 68.241 32.954C68.2534 32.9468 68.2657 32.9397 68.2802 32.9301C68.342 32.8944 68.4038 32.8563 68.4658 32.8182C68.4699 32.8159 68.4719 32.8135 68.4761 32.8111C68.639 32.7063 68.7999 32.5968 68.9587 32.4801C69.002 32.4492 69.0453 32.4182 69.0886 32.3825C69.1526 32.3372 69.2144 32.2872 69.2742 32.2372C69.3547 32.1729 69.435 32.1063 69.5135 32.0372C69.5396 32.0179 69.5644 31.9964 69.5877 31.9729C69.7795 31.8062 69.9651 31.63 70.1425 31.4443C71.4875 30.0606 72.4468 28.2474 72.8991 26.2341C73.3513 24.2208 73.2763 22.0978 72.6833 20.1338ZM69.9878 30.83C69.7646 31.0725 69.5305 31.3014 69.2866 31.5157C69.233 31.5634 69.1773 31.611 69.1217 31.6538C69.068 31.7015 69.0144 31.7467 68.9587 31.7896C68.9113 31.8277 68.8639 31.8658 68.8143 31.9015C68.8102 31.9062 68.8041 31.9086 68.7999 31.9134C68.7648 31.942 68.7277 31.9682 68.6927 31.9944C68.5833 32.0729 68.4699 32.1515 68.3586 32.2253C68.3318 32.242 68.307 32.261 68.2802 32.2777C68.2657 32.2872 68.2513 32.2968 68.2348 32.3063C68.173 32.3468 68.111 32.3825 68.0492 32.4206C68.0409 32.4277 68.0307 32.4301 68.0224 32.4373C68.0193 32.4378 68.0164 32.4395 68.0141 32.442C67.9708 32.4682 67.9275 32.492 67.8842 32.5158C67.8471 32.5373 67.812 32.5587 67.7749 32.5777C67.6243 32.6611 67.4697 32.7396 67.315 32.8135C67.152 32.8897 66.9871 32.9587 66.82 33.023C66.7787 33.0397 66.7354 33.0587 66.6921 33.073C66.4962 33.1444 66.3003 33.2087 66.1002 33.2611C65.7021 33.373 65.2975 33.4518 64.8897 33.4969C64.6215 33.5254 64.3493 33.5397 64.0771 33.5397C63.813 33.5397 63.5511 33.5278 63.2892 33.4992C62.822 33.4499 62.3591 33.3559 61.9054 33.2183C61.8888 33.2135 61.8703 33.2087 61.8538 33.204C61.4816 33.0919 61.1169 32.9487 60.7628 32.7754C60.7443 32.7658 60.7236 32.7587 60.7071 32.7492C60.6865 32.7396 60.6679 32.7325 60.6514 32.723C60.6308 32.7135 60.6122 32.7039 60.5937 32.6944C60.439 32.6158 60.2885 32.5301 60.1379 32.442L60.0677 32.3991C59.9337 32.3182 59.8017 32.2348 59.6718 32.142C59.6265 32.1134 59.579 32.0801 59.5336 32.0467C59.4821 32.011 59.4305 31.9729 59.3809 31.9348C59.3687 31.9253 59.3563 31.9158 59.3439 31.9062C59.2284 31.8158 59.1109 31.7253 58.9995 31.6277C58.9211 31.561 58.8448 31.4967 58.7685 31.4276C58.7189 31.3848 58.6695 31.3395 58.6221 31.2919C58.5911 31.2657 58.5602 31.2348 58.5292 31.2038C58.488 31.1633 58.4467 31.1228 58.4055 31.08C58.3416 31.0205 58.2818 30.9538 58.224 30.8919C57.9918 30.6448 57.7721 30.3824 57.5661 30.1061C57.496 30.0156 57.4299 29.9251 57.3661 29.8299C57.3512 29.8111 57.3374 29.7912 57.3248 29.7704C56.2865 28.257 55.6521 26.4275 55.4991 24.505C55.346 22.5826 55.6809 20.6502 56.4628 18.9437C57.2447 17.2372 58.44 15.8303 59.9026 14.8947C61.3653 13.9591 63.0322 13.5353 64.6999 13.6748C66.3677 13.8144 67.9642 14.5113 69.2948 15.6807C70.6253 16.85 71.6323 18.4411 72.1929 20.26C72.7536 22.0788 72.8436 24.0467 72.452 25.9236C72.0605 27.8006 71.2042 29.5053 69.9878 30.83Z" fill="#3F3D56"/>
<path d="M22.2422 78.0442L23.9107 78.0441L24.7044 70.6139L22.2419 70.614L22.2422 78.0442Z" fill="#A0616A"/>
<path d="M21.8167 77.4152L25.1024 77.415H25.1026C25.6579 77.4151 26.1905 77.6698 26.5832 78.1232C26.9759 78.5765 27.1965 79.1914 27.1965 79.8326V79.9112L21.8168 79.9114L21.8167 77.4152Z" fill="#2F2E41"/>
<path d="M28.5023 78.0442L30.1708 78.0441L30.9645 70.6139L28.5021 70.614L28.5023 78.0442Z" fill="#A0616A"/>
<path d="M28.0768 77.4152L31.3626 77.415H31.3627C31.918 77.4151 32.4506 77.6698 32.8433 78.1232C33.236 78.5765 33.4566 79.1914 33.4567 79.8326V79.9112L28.0769 79.9114L28.0768 77.4152Z" fill="#2F2E41"/>
<path d="M17.1797 48.684C17.3162 48.5151 17.4191 48.3138 17.4809 48.0941C17.5428 47.8745 17.5622 47.6418 17.5378 47.4126C17.5133 47.1833 17.4457 46.963 17.3395 46.7672C17.2334 46.5714 17.0913 46.4049 16.9234 46.2793L18.0826 40.8263L15.7021 41.8057L14.9662 46.8338C14.8022 47.1735 14.7518 47.5708 14.8246 47.9505C14.8974 48.3303 15.0883 48.6659 15.3612 48.894C15.634 49.1221 15.9698 49.2266 16.305 49.1879C16.6402 49.1492 16.9514 48.9699 17.1797 48.684Z" fill="#9E616A"/>
<path d="M34.8907 48.2125C34.7542 48.0437 34.6514 47.8424 34.5895 47.6227C34.5276 47.403 34.5082 47.1704 34.5327 46.9411C34.5571 46.7119 34.6248 46.4916 34.7309 46.2958C34.8371 46.1 34.9791 45.9334 35.147 45.8079L33.9878 40.3549L36.3683 41.3342L37.1042 46.3624C37.2682 46.7021 37.3186 47.0994 37.2458 47.4791C37.173 47.8588 36.9821 48.1945 36.7093 48.4226C36.4364 48.6506 36.1006 48.7552 35.7654 48.7165C35.4303 48.6778 35.119 48.4985 34.8907 48.2125Z" fill="#9E616A"/>
<path d="M19.3749 44.8615L21.6875 76.1398L25.0712 75.7836L26.4255 51.6098L27.631 61.1816L27.8724 76.386L30.9344 76.1503L32.6348 59.7935L32.2176 43.9525L20.5932 42.5934L19.3749 44.8615Z" fill="#2F2E41"/>
<path d="M25.7365 16.399C27.6746 16.399 29.2457 14.585 29.2457 12.3474C29.2457 10.1097 27.6746 8.29578 25.7365 8.29578C23.7984 8.29578 22.2273 10.1097 22.2273 12.3474C22.2273 14.585 23.7984 16.399 25.7365 16.399Z" fill="#A0616A"/>
<path d="M24.6253 9.10605C24.6253 9.10605 26.2629 9.6125 27.111 9.81509C27.959 10.0177 27.8713 9.44369 27.8713 9.44369C27.8713 9.44369 28.9825 9.6125 28.924 9.47745C28.8656 9.3424 29.3919 8.63337 28.7778 7.82304C28.1637 7.01272 28.3392 6.40498 28.3392 6.40498H27.8128L27.6666 6.16863H26.8478C26.8478 6.16863 25.9425 5.25212 24.3341 5.52222C22.7257 5.79232 20.8236 6.50627 20.6482 7.62046C20.6244 7.77159 20.593 7.93949 20.5566 8.11682C20.1168 10.2606 21.0513 12.2664 22.0205 14.1641C22.2587 14.6305 23.4109 15.6475 23.3814 14.9498C23.352 14.252 22.3443 12.685 23.0461 12.5837C23.748 12.4824 24.9469 10.4228 24.6253 9.10605Z" fill="#2F2E41"/>
<path d="M22.0848 17.783H28.2649L32.6348 44.4276C32.6348 44.4276 28.8251 44.8037 26.6476 45.7465C24.4701 46.6892 20.8503 43.5929 20.8503 43.5929L22.0848 17.783Z" fill="#6C63FF"/>
<path d="M22.8563 20.7919V17.783L22.1566 17.7781L17.0441 21.531L18.1534 42.093C18.1534 42.093 19.4664 48.9528 21.4579 48.8816C23.4495 48.8105 24.985 24.3557 22.8563 20.7919Z" fill="#2F2E41"/>
<path d="M18.6863 22.099L17.0441 21.531C17.0441 21.531 15.8284 21.9419 15.8284 23.356C15.8284 24.7702 14.7809 44.8616 14.7809 44.8616L18.1084 45.2011L18.8224 34.9834L18.6863 22.099Z" fill="#2F2E41"/>
<path d="M27.8043 19.7422L27.477 17.783L28.4167 17.621L31.819 19.1922C31.819 19.1922 34.881 45.0395 33.5201 45.8251C32.1592 46.6107 31.2403 46.0021 31.2403 46.0021C31.2403 46.0021 26.7641 26.9386 27.5564 24.3617L27.8043 19.7422Z" fill="#2F2E41"/>
<path d="M29.4375 19.585L30.0181 19.2932C30.0181 19.2932 31.7224 18.3181 32.6894 20.2871C33.6563 22.2561 37.0586 44.2538 37.0586 44.2538L34.2592 44.8615L32.1663 36.9449L29.4375 19.585Z" fill="#2F2E41"/>
<path d="M51.9868 80H0.136091C0.0999974 80 0.065382 79.9835 0.03986 79.954C0.014338 79.9246 0 79.8846 0 79.8429C0 79.8012 0.014338 79.7613 0.03986 79.7318C0.065382 79.7023 0.0999974 79.6858 0.136091 79.6858H51.9868C52.0228 79.6858 52.0575 79.7023 52.083 79.7318C52.1085 79.7613 52.1228 79.8012 52.1228 79.8429C52.1228 79.8846 52.1085 79.9246 52.083 79.954C52.0575 79.9835 52.0228 80 51.9868 80Z" fill="#CACACA"/>
</g>
<defs>
<clipPath id="clip0_2_203">
<rect width="123" height="80" fill="white"/>
</clipPath>
</defs>
</svg>
