<svg width="27" height="26" viewBox="0 0 27 26" fill="none" xmlns="http://www.w3.org/2000/svg">
<mask id="path-1-inside-1_56_893" fill="white">
<path d="M16.0406 0C16.2423 6.19509e-06 16.4389 0.0624071 16.6019 0.178216C16.7649 0.294025 16.886 0.457266 16.9477 0.644429L17.9958 3.81829C18.436 4.02814 18.8571 4.264 19.2592 4.52957L22.6055 3.82757C22.8028 3.78652 23.0084 3.80756 23.1926 3.88766C23.3769 3.96776 23.5303 4.10278 23.6308 4.27329L26.272 8.72857C26.3728 8.89898 26.4155 9.09619 26.394 9.29179C26.3724 9.48738 26.2876 9.67124 26.1519 9.81686L23.8556 12.2869C23.8891 12.7605 23.8891 13.2358 23.8556 13.7094L26.1519 16.1831C26.2876 16.3288 26.3724 16.5126 26.394 16.7082C26.4155 16.9038 26.3728 17.101 26.272 17.2714L23.6308 21.7286C23.53 21.8987 23.3765 22.0334 23.1923 22.1131C23.008 22.1929 22.8026 22.2136 22.6055 22.1724L19.2592 21.4704C18.859 21.7341 18.436 21.9719 17.9977 22.1817L16.9477 25.3556C16.886 25.5427 16.7649 25.706 16.6019 25.8218C16.4389 25.9376 16.2423 26 16.0406 26H10.7582C10.5565 26 10.36 25.9376 10.197 25.8218C10.0339 25.706 9.91286 25.5427 9.85113 25.3556L8.80494 22.1836C8.36592 21.9744 7.94247 21.7354 7.53769 21.4686L4.19331 22.1724C3.99601 22.2135 3.79043 22.1924 3.60619 22.1123C3.42194 22.0322 3.26854 21.8972 3.16808 21.7267L0.526873 17.2714C0.426017 17.101 0.383297 16.9038 0.404874 16.7082C0.426451 16.5126 0.51121 16.3288 0.646928 16.1831L2.94321 13.7094C2.90995 13.237 2.90995 12.763 2.94321 12.2906L0.646928 9.81686C0.51121 9.67124 0.426451 9.48738 0.404874 9.29179C0.383297 9.09619 0.426017 8.89898 0.526873 8.72857L3.16808 4.27143C3.26882 4.10127 3.42234 3.96662 3.60656 3.88687C3.79078 3.80711 3.99621 3.78635 4.19331 3.82757L7.53769 4.53143C7.94169 4.26586 8.36474 4.02629 8.80494 3.81643L9.85303 0.644429C9.91456 0.457869 10.0351 0.29506 10.1973 0.179307C10.3596 0.0635541 10.5552 0.000790525 10.7563 0H16.0387H16.0406ZM15.3432 1.85714H11.4557L10.3733 5.13871L9.64341 5.486C9.28462 5.65711 8.93825 5.85195 8.60675 6.06914L7.93216 6.51486L4.47153 5.78686L2.52779 9.07029L4.9003 11.6294L4.84313 12.4169C4.81575 12.8052 4.81575 13.1948 4.84313 13.5831L4.9003 14.3706L2.52398 16.9297L4.46962 20.2131L7.93025 19.487L8.60485 19.9309C8.93635 20.1481 9.28271 20.3429 9.64151 20.514L10.3714 20.8613L11.4557 24.1429H15.347L16.4332 20.8594L17.1611 20.514C17.5195 20.3433 17.8653 20.1484 18.1959 19.9309L18.8686 19.487L22.3311 20.2131L24.2749 16.9297L21.9004 14.3706L21.9576 13.5831C21.9851 13.1942 21.9851 12.8039 21.9576 12.415L21.9004 11.6276L24.2768 9.07029L22.3311 5.78686L18.8686 6.51114L18.1959 6.06914C17.8653 5.85151 17.5196 5.65666 17.1611 5.486L16.4332 5.14057L15.3451 1.85714H15.3432ZM13.3994 7.42857C14.9156 7.42857 16.3697 8.01556 17.4419 9.06041C18.514 10.1053 19.1163 11.5224 19.1163 13C19.1163 14.4776 18.514 15.8947 17.4419 16.9396C16.3697 17.9844 14.9156 18.5714 13.3994 18.5714C11.8832 18.5714 10.4291 17.9844 9.35696 16.9396C8.28483 15.8947 7.68252 14.4776 7.68252 13C7.68252 11.5224 8.28483 10.1053 9.35696 9.06041C10.4291 8.01556 11.8832 7.42857 13.3994 7.42857ZM13.3994 9.28571C12.3886 9.28571 11.4192 9.67704 10.7044 10.3736C9.98969 11.0702 9.58815 12.0149 9.58815 13C9.58815 13.9851 9.98969 14.9298 10.7044 15.6264C11.4192 16.323 12.3886 16.7143 13.3994 16.7143C14.4102 16.7143 15.3796 16.323 16.0944 15.6264C16.8091 14.9298 17.2107 13.9851 17.2107 13C17.2107 12.0149 16.8091 11.0702 16.0944 10.3736C15.3796 9.67704 14.4102 9.28571 13.3994 9.28571Z"/>
</mask>
<path d="M16.0406 0C16.2423 6.19509e-06 16.4389 0.0624071 16.6019 0.178216C16.7649 0.294025 16.886 0.457266 16.9477 0.644429L17.9958 3.81829C18.436 4.02814 18.8571 4.264 19.2592 4.52957L22.6055 3.82757C22.8028 3.78652 23.0084 3.80756 23.1926 3.88766C23.3769 3.96776 23.5303 4.10278 23.6308 4.27329L26.272 8.72857C26.3728 8.89898 26.4155 9.09619 26.394 9.29179C26.3724 9.48738 26.2876 9.67124 26.1519 9.81686L23.8556 12.2869C23.8891 12.7605 23.8891 13.2358 23.8556 13.7094L26.1519 16.1831C26.2876 16.3288 26.3724 16.5126 26.394 16.7082C26.4155 16.9038 26.3728 17.101 26.272 17.2714L23.6308 21.7286C23.53 21.8987 23.3765 22.0334 23.1923 22.1131C23.008 22.1929 22.8026 22.2136 22.6055 22.1724L19.2592 21.4704C18.859 21.7341 18.436 21.9719 17.9977 22.1817L16.9477 25.3556C16.886 25.5427 16.7649 25.706 16.6019 25.8218C16.4389 25.9376 16.2423 26 16.0406 26H10.7582C10.5565 26 10.36 25.9376 10.197 25.8218C10.0339 25.706 9.91286 25.5427 9.85113 25.3556L8.80494 22.1836C8.36592 21.9744 7.94247 21.7354 7.53769 21.4686L4.19331 22.1724C3.99601 22.2135 3.79043 22.1924 3.60619 22.1123C3.42194 22.0322 3.26854 21.8972 3.16808 21.7267L0.526873 17.2714C0.426017 17.101 0.383297 16.9038 0.404874 16.7082C0.426451 16.5126 0.51121 16.3288 0.646928 16.1831L2.94321 13.7094C2.90995 13.237 2.90995 12.763 2.94321 12.2906L0.646928 9.81686C0.51121 9.67124 0.426451 9.48738 0.404874 9.29179C0.383297 9.09619 0.426017 8.89898 0.526873 8.72857L3.16808 4.27143C3.26882 4.10127 3.42234 3.96662 3.60656 3.88687C3.79078 3.80711 3.99621 3.78635 4.19331 3.82757L7.53769 4.53143C7.94169 4.26586 8.36474 4.02629 8.80494 3.81643L9.85303 0.644429C9.91456 0.457869 10.0351 0.29506 10.1973 0.179307C10.3596 0.0635541 10.5552 0.000790525 10.7563 0H16.0387H16.0406ZM15.3432 1.85714H11.4557L10.3733 5.13871L9.64341 5.486C9.28462 5.65711 8.93825 5.85195 8.60675 6.06914L7.93216 6.51486L4.47153 5.78686L2.52779 9.07029L4.9003 11.6294L4.84313 12.4169C4.81575 12.8052 4.81575 13.1948 4.84313 13.5831L4.9003 14.3706L2.52398 16.9297L4.46962 20.2131L7.93025 19.487L8.60485 19.9309C8.93635 20.1481 9.28271 20.3429 9.64151 20.514L10.3714 20.8613L11.4557 24.1429H15.347L16.4332 20.8594L17.1611 20.514C17.5195 20.3433 17.8653 20.1484 18.1959 19.9309L18.8686 19.487L22.3311 20.2131L24.2749 16.9297L21.9004 14.3706L21.9576 13.5831C21.9851 13.1942 21.9851 12.8039 21.9576 12.415L21.9004 11.6276L24.2768 9.07029L22.3311 5.78686L18.8686 6.51114L18.1959 6.06914C17.8653 5.85151 17.5196 5.65666 17.1611 5.486L16.4332 5.14057L15.3451 1.85714H15.3432ZM13.3994 7.42857C14.9156 7.42857 16.3697 8.01556 17.4419 9.06041C18.514 10.1053 19.1163 11.5224 19.1163 13C19.1163 14.4776 18.514 15.8947 17.4419 16.9396C16.3697 17.9844 14.9156 18.5714 13.3994 18.5714C11.8832 18.5714 10.4291 17.9844 9.35696 16.9396C8.28483 15.8947 7.68252 14.4776 7.68252 13C7.68252 11.5224 8.28483 10.1053 9.35696 9.06041C10.4291 8.01556 11.8832 7.42857 13.3994 7.42857ZM13.3994 9.28571C12.3886 9.28571 11.4192 9.67704 10.7044 10.3736C9.98969 11.0702 9.58815 12.0149 9.58815 13C9.58815 13.9851 9.98969 14.9298 10.7044 15.6264C11.4192 16.323 12.3886 16.7143 13.3994 16.7143C14.4102 16.7143 15.3796 16.323 16.0944 15.6264C16.8091 14.9298 17.2107 13.9851 17.2107 13C17.2107 12.0149 16.8091 11.0702 16.0944 10.3736C15.3796 9.67704 14.4102 9.28571 13.3994 9.28571Z" fill="#818286" stroke="#818286" stroke-width="5" mask="url(#path-1-inside-1_56_893)"/>
</svg>
