<svg width="25" height="24" viewBox="0 0 25 24" fill="none" xmlns="http://www.w3.org/2000/svg">
<mask id="path-1-inside-1_56_893" fill="white">
<path d="M14.8374 0C15.0237 5.71854e-06 15.2051 0.0576066 15.3555 0.164507C15.506 0.271408 15.6178 0.422092 15.6748 0.594857L16.6422 3.52457C17.0486 3.71829 17.4373 3.936 17.8085 4.18114L20.8974 3.53314C21.0795 3.49525 21.2692 3.51467 21.4393 3.58861C21.6094 3.66255 21.751 3.78718 21.8437 3.94457L24.2818 8.05714C24.3749 8.21444 24.4143 8.39649 24.3944 8.57703C24.3745 8.75758 24.2962 8.9273 24.1709 9.06171L22.0513 11.3417C22.0822 11.7789 22.0822 12.2177 22.0513 12.6549L24.1709 14.9383C24.2962 15.0727 24.3745 15.2424 24.3944 15.423C24.4143 15.6035 24.3749 15.7856 24.2818 15.9429L21.8437 20.0571C21.7507 20.2142 21.609 20.3385 21.439 20.4121C21.2689 20.4857 21.0793 20.5049 20.8974 20.4669L17.8085 19.8189C17.4391 20.0623 17.0486 20.2817 16.644 20.4754L15.6748 23.4051C15.6178 23.5779 15.506 23.7286 15.3555 23.8355C15.2051 23.9424 15.0237 24 14.8374 24H9.96138C9.77517 24 9.59377 23.9424 9.4433 23.8355C9.29283 23.7286 9.18105 23.5779 9.12407 23.4051L8.15836 20.4771C7.75311 20.284 7.36223 20.0635 6.98859 19.8171L3.90147 20.4669C3.71935 20.5048 3.52958 20.4853 3.35951 20.4114C3.18944 20.3375 3.04784 20.2128 2.9551 20.0554L0.517069 15.9429C0.423971 15.7856 0.384537 15.6035 0.404454 15.423C0.424371 15.2424 0.50261 15.0727 0.627889 14.9383L2.74754 12.6549C2.71683 12.2188 2.71683 11.7812 2.74754 11.3451L0.627889 9.06171C0.50261 8.9273 0.424371 8.75758 0.404454 8.57703C0.384537 8.39649 0.423971 8.21444 0.517069 8.05714L2.9551 3.94286C3.04809 3.78578 3.1898 3.6615 3.35986 3.58788C3.52991 3.51426 3.71954 3.49509 3.90147 3.53314L6.98859 4.18286C7.36151 3.93771 7.75202 3.71657 8.15836 3.52286L9.12583 0.594857C9.18263 0.422648 9.29387 0.272363 9.44363 0.165514C9.5934 0.0586653 9.77401 0.000729716 9.95962 0H14.8357H14.8374ZM14.1936 1.71429H10.6052L9.60605 4.74343L8.93234 5.064C8.60114 5.22195 8.28142 5.4018 7.97542 5.60229L7.35272 6.01371L4.15829 5.34171L2.36407 8.37257L4.55408 10.7349L4.5013 11.4617C4.47603 11.8201 4.47603 12.1799 4.5013 12.5383L4.55408 13.2651L2.36055 15.6274L4.15653 18.6583L7.35096 17.988L7.97366 18.3977C8.27966 18.5982 8.59938 18.778 8.93058 18.936L9.60429 19.2566L10.6052 22.2857H14.1972L15.1998 19.2549L15.8718 18.936C16.2026 18.7784 16.5218 18.5986 16.8269 18.3977L17.4479 17.988L20.6441 18.6583L22.4383 15.6274L20.2465 13.2651L20.2993 12.5383C20.3246 12.1793 20.3246 11.819 20.2993 11.46L20.2465 10.7331L22.44 8.37257L20.6441 5.34171L17.4479 6.01029L16.8269 5.60229C16.5218 5.4014 16.2026 5.22153 15.8718 5.064L15.1998 4.74514L14.1954 1.71429H14.1936ZM12.3994 6.85714C13.799 6.85714 15.1413 7.39898 16.1309 8.36345C17.1206 9.32792 17.6765 10.636 17.6765 12C17.6765 13.364 17.1206 14.6721 16.1309 15.6365C15.1413 16.601 13.799 17.1429 12.3994 17.1429C10.9998 17.1429 9.65757 16.601 8.66792 15.6365C7.67826 14.6721 7.12228 13.364 7.12228 12C7.12228 10.636 7.67826 9.32792 8.66792 8.36345C9.65757 7.39898 10.9998 6.85714 12.3994 6.85714ZM12.3994 8.57143C11.4664 8.57143 10.5715 8.93265 9.91175 9.57563C9.25198 10.2186 8.88132 11.0907 8.88132 12C8.88132 12.9093 9.25198 13.7814 9.91175 14.4244C10.5715 15.0673 11.4664 15.4286 12.3994 15.4286C13.3325 15.4286 14.2273 15.0673 14.8871 14.4244C15.5468 13.7814 15.9175 12.9093 15.9175 12C15.9175 11.0907 15.5468 10.2186 14.8871 9.57563C14.2273 8.93265 13.3325 8.57143 12.3994 8.57143Z"/>
</mask>
<path d="M14.8374 0C15.0237 5.71854e-06 15.2051 0.0576066 15.3555 0.164507C15.506 0.271408 15.6178 0.422092 15.6748 0.594857L16.6422 3.52457C17.0486 3.71829 17.4373 3.936 17.8085 4.18114L20.8974 3.53314C21.0795 3.49525 21.2692 3.51467 21.4393 3.58861C21.6094 3.66255 21.751 3.78718 21.8437 3.94457L24.2818 8.05714C24.3749 8.21444 24.4143 8.39649 24.3944 8.57703C24.3745 8.75758 24.2962 8.9273 24.1709 9.06171L22.0513 11.3417C22.0822 11.7789 22.0822 12.2177 22.0513 12.6549L24.1709 14.9383C24.2962 15.0727 24.3745 15.2424 24.3944 15.423C24.4143 15.6035 24.3749 15.7856 24.2818 15.9429L21.8437 20.0571C21.7507 20.2142 21.609 20.3385 21.439 20.4121C21.2689 20.4857 21.0793 20.5049 20.8974 20.4669L17.8085 19.8189C17.4391 20.0623 17.0486 20.2817 16.644 20.4754L15.6748 23.4051C15.6178 23.5779 15.506 23.7286 15.3555 23.8355C15.2051 23.9424 15.0237 24 14.8374 24H9.96138C9.77517 24 9.59377 23.9424 9.4433 23.8355C9.29283 23.7286 9.18105 23.5779 9.12407 23.4051L8.15836 20.4771C7.75311 20.284 7.36223 20.0635 6.98859 19.8171L3.90147 20.4669C3.71935 20.5048 3.52958 20.4853 3.35951 20.4114C3.18944 20.3375 3.04784 20.2128 2.9551 20.0554L0.517069 15.9429C0.423971 15.7856 0.384537 15.6035 0.404454 15.423C0.424371 15.2424 0.50261 15.0727 0.627889 14.9383L2.74754 12.6549C2.71683 12.2188 2.71683 11.7812 2.74754 11.3451L0.627889 9.06171C0.50261 8.9273 0.424371 8.75758 0.404454 8.57703C0.384537 8.39649 0.423971 8.21444 0.517069 8.05714L2.9551 3.94286C3.04809 3.78578 3.1898 3.6615 3.35986 3.58788C3.52991 3.51426 3.71954 3.49509 3.90147 3.53314L6.98859 4.18286C7.36151 3.93771 7.75202 3.71657 8.15836 3.52286L9.12583 0.594857C9.18263 0.422648 9.29387 0.272363 9.44363 0.165514C9.5934 0.0586653 9.77401 0.000729716 9.95962 0H14.8357H14.8374ZM14.1936 1.71429H10.6052L9.60605 4.74343L8.93234 5.064C8.60114 5.22195 8.28142 5.4018 7.97542 5.60229L7.35272 6.01371L4.15829 5.34171L2.36407 8.37257L4.55408 10.7349L4.5013 11.4617C4.47603 11.8201 4.47603 12.1799 4.5013 12.5383L4.55408 13.2651L2.36055 15.6274L4.15653 18.6583L7.35096 17.988L7.97366 18.3977C8.27966 18.5982 8.59938 18.778 8.93058 18.936L9.60429 19.2566L10.6052 22.2857H14.1972L15.1998 19.2549L15.8718 18.936C16.2026 18.7784 16.5218 18.5986 16.8269 18.3977L17.4479 17.988L20.6441 18.6583L22.4383 15.6274L20.2465 13.2651L20.2993 12.5383C20.3246 12.1793 20.3246 11.819 20.2993 11.46L20.2465 10.7331L22.44 8.37257L20.6441 5.34171L17.4479 6.01029L16.8269 5.60229C16.5218 5.4014 16.2026 5.22153 15.8718 5.064L15.1998 4.74514L14.1954 1.71429H14.1936ZM12.3994 6.85714C13.799 6.85714 15.1413 7.39898 16.1309 8.36345C17.1206 9.32792 17.6765 10.636 17.6765 12C17.6765 13.364 17.1206 14.6721 16.1309 15.6365C15.1413 16.601 13.799 17.1429 12.3994 17.1429C10.9998 17.1429 9.65757 16.601 8.66792 15.6365C7.67826 14.6721 7.12228 13.364 7.12228 12C7.12228 10.636 7.67826 9.32792 8.66792 8.36345C9.65757 7.39898 10.9998 6.85714 12.3994 6.85714ZM12.3994 8.57143C11.4664 8.57143 10.5715 8.93265 9.91175 9.57563C9.25198 10.2186 8.88132 11.0907 8.88132 12C8.88132 12.9093 9.25198 13.7814 9.91175 14.4244C10.5715 15.0673 11.4664 15.4286 12.3994 15.4286C13.3325 15.4286 14.2273 15.0673 14.8871 14.4244C15.5468 13.7814 15.9175 12.9093 15.9175 12C15.9175 11.0907 15.5468 10.2186 14.8871 9.57563C14.2273 8.93265 13.3325 8.57143 12.3994 8.57143Z" fill="#818286" stroke="#818286" stroke-width="5" mask="url(#path-1-inside-1_56_893)"/>
</svg>
