<svg width="123" height="116" viewBox="0 0 123 116" fill="none" xmlns="http://www.w3.org/2000/svg">
<g clip-path="url(#clip0_2_101)">
<path d="M38.0173 108.597L38.149 105.739C39.5219 105.031 41.0531 104.657 42.6097 104.65C40.4673 106.34 40.7351 109.598 39.2826 111.871C38.8239 112.577 38.2066 113.174 37.4764 113.618C36.7462 114.062 35.9218 114.342 35.0643 114.437L33.2714 115.496C33.0254 114.172 33.0797 112.813 33.4304 111.512C33.7812 110.211 34.4201 108.998 35.3031 107.958C35.8045 107.379 36.3794 106.864 37.0143 106.424C37.4437 107.516 38.0173 108.597 38.0173 108.597Z" fill="#F2F2F2"/>
<path d="M112.124 66.9597C116.958 63.4068 119.267 57.4365 117.821 51.7413C117.785 51.5998 117.747 51.4586 117.708 51.3177C116.749 47.9371 114.379 44.724 110.924 43.6438C108.023 42.7368 104.856 43.4343 101.83 43.0736C95.8886 42.3656 91.2826 37.7266 88.0417 32.8695C84.8008 28.0124 82.31 22.5756 78.0035 18.5629C70.905 11.9487 59.3255 10.5246 50.5243 14.83C41.7231 19.1354 36.1169 28.6872 36.356 38.2067C36.5951 47.7263 42.4512 56.8277 50.9556 61.6566C54.0798 63.4305 57.6933 64.6872 61.2893 64.2474C64.4096 63.8659 67.2448 62.2479 70.3504 61.7675C75.2331 61.0123 80.0847 63.1428 84.3079 65.6254C88.5311 68.108 92.6104 71.0507 97.4095 72.2017C102.069 73.3192 107.843 70.107 112.124 66.9597Z" fill="#F2F2F2"/>
<path d="M73.8786 24.4461H25.725C24.7207 24.4472 23.7579 24.8327 23.0478 25.518C22.3377 26.2033 21.9382 27.1325 21.9371 28.1016V51.2298C21.9382 52.1989 22.3377 53.1281 23.0478 53.8134C23.7579 54.4987 24.7207 54.8842 25.725 54.8853H73.8786C74.883 54.8845 75.8459 54.4991 76.5561 53.8137C77.2663 53.1283 77.6657 52.199 77.6665 51.2298V28.1016C77.6657 27.1324 77.2663 26.203 76.5561 25.5177C75.8459 24.8323 74.883 24.4469 73.8786 24.4461Z" fill="white"/>
<path d="M73.8788 55.0655H25.7259C24.6722 55.0643 23.662 54.6599 22.917 53.9409C22.1719 53.2219 21.7528 52.247 21.7516 51.2302V28.1013C21.7528 27.0845 22.1719 26.1096 22.917 25.3906C23.662 24.6716 24.6722 24.2672 25.7259 24.266H73.8788C74.9325 24.2672 75.9426 24.6716 76.6877 25.3906C77.4327 26.1096 77.8518 27.0845 77.853 28.1013V51.2302C77.8518 52.247 77.4327 53.2219 76.6877 53.9409C75.9426 54.6599 74.9325 55.0643 73.8788 55.0655ZM25.7259 24.6255C24.771 24.6265 23.8555 24.9931 23.1802 25.6447C22.505 26.2963 22.1252 27.1798 22.1241 28.1013V51.2302C22.1252 52.1517 22.505 53.0352 23.1802 53.6868C23.8555 54.3384 24.771 54.705 25.7259 54.706H73.8788C74.8337 54.705 75.7492 54.3384 76.4244 53.6868C77.0996 53.0352 77.4795 52.1517 77.4806 51.2302V28.1013C77.4795 27.1798 77.0996 26.2963 76.4244 25.6447C75.7492 24.9931 74.8337 24.6265 73.8788 24.6255H25.7259Z" fill="#CCCCCC"/>
<path d="M76.0938 61.4593H29.948C29.5492 61.4593 29.1666 61.3064 28.8846 61.0342C28.6025 60.762 28.4441 60.3929 28.4441 60.0079C28.4441 59.623 28.6025 59.2538 28.8846 58.9817C29.1666 58.7095 29.5492 58.5566 29.948 58.5566H76.0938C76.4927 58.5566 76.8752 58.7095 77.1573 58.9817C77.4393 59.2538 77.5977 59.623 77.5977 60.0079C77.5977 60.3929 77.4393 60.762 77.1573 61.0342C76.8752 61.3064 76.4927 61.4593 76.0938 61.4593Z" fill="#E6E6E6"/>
<path d="M44.7414 47.6195C44.4681 47.6187 44.1994 47.5512 43.9603 47.4231C43.7047 47.2901 43.4914 47.0922 43.3435 46.851C43.1956 46.6097 43.1186 46.334 43.1209 46.0537V33.1458C43.1209 32.8659 43.1988 32.5912 43.3464 32.3503C43.4941 32.1094 43.7061 31.9112 43.9603 31.7764C44.2145 31.6416 44.5015 31.5752 44.7914 31.5841C45.0812 31.593 45.3633 31.6768 45.6081 31.8269L58.2962 38.2808C58.5262 38.4219 58.7157 38.6168 58.847 38.8473C58.9782 39.0779 59.0471 39.3367 59.0471 39.5997C59.0471 39.8628 58.9782 40.1216 58.847 40.3522C58.7157 40.5827 58.5262 40.7776 58.2962 40.9187L45.6081 47.3726C45.3495 47.533 45.0488 47.6186 44.7414 47.6195Z" fill="#F2F2F2"/>
<path d="M119.253 41.184H99.1304C98.7107 41.1836 98.3083 41.0225 98.0116 40.7361C97.7148 40.4497 97.5479 40.0614 97.5474 39.6564V29.9911C97.5479 29.5861 97.7148 29.1978 98.0116 28.9114C98.3083 28.625 98.7107 28.4639 99.1304 28.4635H119.253C119.673 28.4639 120.075 28.625 120.372 28.9114C120.669 29.1978 120.835 29.5861 120.836 29.9911V39.6564C120.835 40.0614 120.669 40.4497 120.372 40.7361C120.075 41.0225 119.673 41.1836 119.253 41.184Z" fill="white"/>
<path d="M119.253 41.3637H99.1304C98.6613 41.3632 98.2116 41.1832 97.88 40.8631C97.5483 40.543 97.3617 40.1091 97.3612 39.6564V29.9911C97.3617 29.5384 97.5483 29.1045 97.88 28.7844C98.2116 28.4643 98.6613 28.2843 99.1304 28.2838H119.253C119.722 28.2843 120.172 28.4643 120.503 28.7844C120.835 29.1045 121.022 29.5384 121.022 29.9911V39.6564C121.022 40.1091 120.835 40.543 120.503 40.8631C120.172 41.1832 119.722 41.3632 119.253 41.3637ZM99.1304 28.6432C98.7601 28.6436 98.4051 28.7857 98.1432 29.0384C97.8814 29.2911 97.7341 29.6337 97.7337 29.9911V39.6564C97.7341 40.0138 97.8814 40.3564 98.1432 40.6091C98.4051 40.8618 98.7601 41.0039 99.1304 41.0043H119.253C119.623 41.0039 119.978 40.8618 120.24 40.6091C120.502 40.3564 120.649 40.0138 120.65 39.6564V29.9911C120.649 29.6337 120.502 29.2911 120.24 29.0384C119.978 28.7857 119.623 28.6436 119.253 28.6432H99.1304Z" fill="#CCCCCC"/>
<path d="M115.947 45.9135H102.392C101.993 45.9131 101.611 45.76 101.329 45.4879C101.048 45.2157 100.889 44.8468 100.889 44.4622C100.889 44.0775 101.048 43.7086 101.329 43.4365C101.611 43.1643 101.993 43.0112 102.392 43.0108H115.947C116.346 43.0108 116.729 43.1637 117.011 43.4359C117.293 43.7081 117.451 44.0772 117.451 44.4622C117.451 44.8471 117.293 45.2163 117.011 45.4884C116.729 45.7606 116.346 45.9135 115.947 45.9135Z" fill="#E6E6E6"/>
<path d="M107.028 38.2634C106.914 38.263 106.801 38.2348 106.701 38.1813C106.595 38.1257 106.505 38.043 106.444 37.9422C106.382 37.8414 106.35 37.7262 106.351 37.609V32.215C106.351 32.098 106.383 31.9832 106.445 31.8825C106.507 31.7819 106.595 31.699 106.701 31.6427C106.808 31.5864 106.928 31.5586 107.049 31.5623C107.17 31.5661 107.288 31.6011 107.39 31.6638L112.692 34.3609C112.788 34.4198 112.868 34.5012 112.922 34.5976C112.977 34.6939 113.006 34.8021 113.006 34.912C113.006 35.0219 112.977 35.1301 112.922 35.2264C112.868 35.3228 112.788 35.4042 112.692 35.4632L107.39 38.1602C107.282 38.2272 107.156 38.263 107.028 38.2634Z" fill="#6C63FF"/>
<path d="M106.403 82.7633H86.2805C85.8608 82.7629 85.4584 82.6018 85.1617 82.3154C84.8649 82.029 84.698 81.6407 84.6975 81.2357V71.5704C84.698 71.1654 84.8649 70.7771 85.1617 70.4907C85.4584 70.2043 85.8608 70.0432 86.2805 70.0428H106.403C106.823 70.0432 107.225 70.2043 107.522 70.4907C107.819 70.7771 107.986 71.1654 107.986 71.5704V81.2357C107.986 81.6407 107.819 82.029 107.522 82.3154C107.225 82.6018 106.823 82.7629 106.403 82.7633Z" fill="white"/>
<path d="M106.403 82.9431H86.2805C85.8114 82.9425 85.3617 82.7625 85.0301 82.4424C84.6984 82.1223 84.5118 81.6884 84.5113 81.2357V71.5704C84.5118 71.1178 84.6984 70.6838 85.0301 70.3637C85.3617 70.0436 85.8114 69.8636 86.2805 69.8631H106.403C106.872 69.8636 107.322 70.0436 107.654 70.3637C107.985 70.6838 108.172 71.1178 108.172 71.5704V81.2357C108.172 81.6884 107.985 82.1223 107.654 82.4424C107.322 82.7625 106.872 82.9425 106.403 82.9431ZM86.2805 70.2225C85.9102 70.2229 85.5551 70.365 85.2933 70.6177C85.0314 70.8704 84.8842 71.213 84.8838 71.5704V81.2357C84.8842 81.5931 85.0314 81.9357 85.2933 82.1884C85.5551 82.4411 85.9102 82.5832 86.2805 82.5836H106.403C106.773 82.5832 107.128 82.4411 107.39 82.1884C107.652 81.9357 107.799 81.5931 107.8 81.2357V71.5704C107.799 71.213 107.652 70.8704 107.39 70.6177C107.128 70.365 106.773 70.2229 106.403 70.2225H86.2805Z" fill="#CCCCCC"/>
<path d="M103.097 87.5187H89.5418C89.1432 87.5183 88.7611 87.3652 88.4794 87.093C88.1977 86.8209 88.0395 86.452 88.0395 86.0673C88.0395 85.6827 88.1977 85.3138 88.4794 85.0416C88.7611 84.7695 89.1432 84.6164 89.5418 84.616H103.097C103.496 84.616 103.879 84.7689 104.161 85.0411C104.443 85.3132 104.601 85.6824 104.601 86.0673C104.601 86.4523 104.443 86.8214 104.161 87.0936C103.879 87.3658 103.496 87.5187 103.097 87.5187Z" fill="#E6E6E6"/>
<path d="M94.1291 80.1381C94.0148 80.1378 93.9025 80.1096 93.8027 80.0561C93.6958 80.0005 93.6067 79.9178 93.5449 79.817C93.4831 79.7162 93.4509 79.601 93.4519 79.4838V74.0897C93.4519 73.9728 93.4844 73.858 93.5461 73.7573C93.6078 73.6566 93.6964 73.5738 93.8026 73.5175C93.9088 73.4612 94.0288 73.4334 94.1499 73.4371C94.2711 73.4408 94.3889 73.4759 94.4912 73.5386L99.7935 76.2356C99.8896 76.2946 99.9688 76.376 100.024 76.4723C100.078 76.5687 100.107 76.6768 100.107 76.7868C100.107 76.8967 100.078 77.0049 100.024 77.1012C99.9688 77.1976 99.8896 77.279 99.7935 77.3379L94.4912 80.035C94.3832 80.102 94.2575 80.1378 94.1291 80.1381Z" fill="#6C63FF"/>
<path d="M38.0732 49.3238L27.7739 49.3906C27.7739 49.3906 21.9081 47.5657 19.2479 47.947L18.2308 51.8029L25.5375 54.1391L38.254 52.3586C38.5394 52.4977 38.8577 52.5618 39.177 52.5444C39.4962 52.5271 39.8051 52.4289 40.0725 52.2597C40.3399 52.0905 40.5564 51.8564 40.7002 51.5808C40.8441 51.3052 40.9101 50.9979 40.8918 50.6898C40.8734 50.3818 40.7713 50.0838 40.5957 49.8259C40.4201 49.5681 40.1772 49.3594 39.8915 49.2209C39.6057 49.0824 39.2872 49.019 38.968 49.0371C38.6488 49.0552 38.3402 49.1541 38.0732 49.3238Z" fill="#A0616A"/>
<path d="M25.4503 54.5125L13.2311 51.121L12.1186 47.1209C11.8288 46.5872 11.6995 45.9859 11.7452 45.385C11.7909 44.7841 12.0099 44.2075 12.3774 43.7204C13.4205 42.3569 14.2359 43.7112 15.7164 44.623C18.3116 44.8 24.7894 46.939 27.419 49.4158L27.2118 50.9382L25.4503 54.5125Z" fill="#3F3D56"/>
<path d="M36.0818 51.2474C35.8085 51.2466 35.5397 51.1791 35.3007 51.051C35.045 50.918 34.8318 50.7201 34.6839 50.4789C34.536 50.2376 34.459 49.9619 34.4613 49.6816V36.7737C34.4613 36.4938 34.5392 36.2191 34.6868 35.9782C34.8345 35.7373 35.0465 35.5391 35.3007 35.4043C35.5548 35.2695 35.8419 35.2031 36.1318 35.212C36.4216 35.2209 36.7037 35.3047 36.9485 35.4548L49.6365 41.9087C49.8666 42.0498 50.0561 42.2447 50.1874 42.4752C50.3186 42.7058 50.3874 42.9646 50.3874 43.2276C50.3874 43.4907 50.3186 43.7495 50.1874 43.9801C50.0561 44.2106 49.8666 44.4055 49.6365 44.5465L36.9485 51.0005C36.6899 51.1609 36.3892 51.2465 36.0818 51.2474Z" fill="#6C63FF"/>
<path d="M27.558 113.419L30.1576 113.419L31.3942 103.743L27.5576 103.743L27.558 113.419Z" fill="#A0616A"/>
<path d="M26.895 112.6L27.6266 112.6L30.4833 111.479L32.0143 112.6H32.0145C32.8798 112.6 33.7095 112.932 34.3214 113.522C34.9332 114.113 35.2769 114.913 35.277 115.748V115.851L26.8951 115.851L26.895 112.6Z" fill="#2F2E41"/>
<path d="M9.04669 111.058L11.509 111.862L15.8962 103.08L12.2623 101.893L9.04669 111.058Z" fill="#A0616A"/>
<path d="M8.69088 110.077L9.38391 110.303L12.4622 110.125L13.5398 111.661L13.54 111.661C14.3595 111.929 15.0352 112.5 15.4185 113.249C15.8017 113.997 15.8612 114.862 15.5837 115.653L15.5497 115.75L7.6106 113.156L8.69088 110.077Z" fill="#2F2E41"/>
<path d="M12.0599 71.7408C12.0599 71.7408 11.7563 75.2559 12.5152 78.6246C13.274 81.9932 14.9071 93.1755 14.9071 93.1755C11.5993 98.4222 9.68231 103.585 9.32019 108.811L13.976 109.171L20.6423 93.9062L21.3178 78.6246L26.1744 89.0235L25.9246 89.8268C25.8656 90.0168 25.8728 90.2203 25.9453 90.4059C26.0177 90.5915 26.1513 90.7491 26.3256 90.8543C26.3256 90.8543 25.8708 93.7103 26.1744 93.7103C26.4779 93.7103 27.2368 94.1497 27.2368 94.1497C25.3447 99.8339 25.0907 105.277 26.8259 110.429L30.9229 110.249L33.6111 87.8518L31.6381 75.6953L31.4863 73.3519L30.8033 73.379L30.4556 72.3999L29.8168 70.7156L12.0599 71.7408Z" fill="#2F2E41"/>
<path d="M11.7976 72.4791L11.7705 72.4425C10.3259 70.4907 12.4986 65.8006 12.8263 65.1207L11.4461 64.6885L10.2392 54.8326L9.35653 51.4278C9.02396 50.1407 9.0523 48.7913 9.43866 47.5183C9.82502 46.2452 10.5555 45.0943 11.555 44.1837L13.5953 42.3272L16.0749 38.7866H20.0735L21.4445 41.2857C22.7738 41.5822 23.9531 42.3193 24.7771 43.3686C25.6011 44.4179 26.0176 45.713 25.9539 47.0281L25.6432 53.5827L26.8596 61.7437L26.8604 63.2207L28.9722 66.5622L29.4323 68.6338C29.6227 68.8763 30.8793 70.4932 30.8793 70.9352C30.8793 71.0016 30.8285 71.0658 30.7196 71.1369C29.8632 71.6965 25.1299 72.8374 23.035 72.0284C20.8035 71.1674 11.9331 72.4591 11.8437 72.4723L11.7976 72.4791Z" fill="#3F3D56"/>
<path d="M52.6418 115.786C52.6419 115.814 52.6362 115.842 52.6252 115.868C52.6142 115.894 52.598 115.917 52.5775 115.937C52.5571 115.957 52.5328 115.973 52.506 115.984C52.4792 115.994 52.4505 116 52.4215 116H0.221615C0.162839 116 0.10647 115.977 0.064909 115.937C0.0233483 115.897 0 115.843 0 115.786C0 115.729 0.0233483 115.675 0.064909 115.635C0.10647 115.595 0.162839 115.572 0.221615 115.572H52.4201C52.4788 115.572 52.535 115.594 52.5766 115.634C52.6182 115.674 52.6416 115.728 52.6418 115.785V115.786Z" fill="#CCCCCC"/>
<path d="M18.5907 37.6436C21.5154 37.6436 23.8863 35.3556 23.8863 32.5331C23.8863 29.7106 21.5154 27.4226 18.5907 27.4226C15.666 27.4226 13.295 29.7106 13.295 32.5331C13.295 35.3556 15.666 37.6436 18.5907 37.6436Z" fill="#A0616A"/>
<path d="M38.2491 36.4567L30.0787 42.5084C30.0787 42.5084 24.2604 44.4696 22.3777 46.323L23.9781 49.9898L31.2652 47.5971L40.2912 38.7711C40.6057 38.7158 40.8996 38.5815 41.1433 38.3818C41.387 38.182 41.5719 37.9238 41.6793 37.6332C41.7867 37.3425 41.8129 37.0297 41.7553 36.7262C41.6976 36.4227 41.5581 36.1392 41.3508 35.9043C41.1435 35.6693 40.8758 35.4912 40.5745 35.3879C40.2732 35.2845 39.949 35.2596 39.6346 35.3156C39.3201 35.3716 39.0265 35.5066 38.7833 35.7069C38.5401 35.9072 38.3558 36.1658 38.2491 36.4567Z" fill="#A0616A"/>
<path d="M31.4292 47.9456L20.079 51.1529L16.1766 49.8165C15.6117 49.5597 15.1326 49.1556 14.7932 48.6499C14.4539 48.1441 14.2679 47.5568 14.2563 46.9544C14.2354 45.2597 15.7325 45.8646 17.4831 45.7294C19.6631 44.359 26.1659 42.2918 29.8115 42.7351L30.5984 44.0697L31.4292 47.9456Z" fill="#3F3D56"/>
<path d="M22.222 26.6326C21.8425 26.6217 21.9727 25.9313 21.667 25.7111C21.6655 25.7178 21.6639 25.7244 21.6623 25.7311C21.6222 25.8802 21.5336 26.013 21.4094 26.1099C21.2853 26.2067 21.1322 26.2625 20.9727 26.2691C20.8132 26.2757 20.6557 26.2326 20.5234 26.1463C20.3912 26.06 20.2911 25.935 20.238 25.7897C20.1873 25.6217 20.0955 25.4678 19.9703 25.3411C19.8452 25.2144 19.6903 25.1185 19.5188 25.0616C19.4997 25.7015 18.9982 26.2569 18.3998 26.5333C17.8014 26.8097 17.1192 26.8557 16.4559 26.8651C15.7926 26.8746 15.1197 26.8532 14.4765 27.0098C13.8333 27.1664 13.2077 27.5347 12.9328 28.1174C12.658 28.7001 12.8541 29.5023 13.455 29.7734C12.9895 29.7758 12.5945 30.1465 12.4335 30.5681C12.3016 31.0005 12.2672 31.4551 12.3326 31.9014C12.4634 33.554 12.7824 35.3331 14.0293 36.4728C14.9797 37.3414 16.3399 37.6913 17.6488 37.6863C18.9577 37.6812 18.7275 37.5651 19.9931 37.2427C19.9931 37.2427 21.1963 33.914 20.8933 33.5866C20.5904 33.2591 20.3387 32.8401 20.3935 32.4043C20.4484 31.9685 20.9337 31.5781 21.3548 31.744C21.284 31.5693 21.2307 31.536 21.1972 31.5449C21.2185 31.4952 21.2371 31.4445 21.2529 31.393C21.3322 31.1305 21.4749 30.8898 21.6693 30.6909C21.8638 30.4919 22.1043 30.3403 22.3713 30.2485C22.6409 30.1641 22.9309 30.1613 23.2023 30.2405C23.4736 30.3198 23.7133 30.4773 23.8892 30.6918C25.275 29.4376 24.4153 26.6955 22.222 26.6326Z" fill="#2F2E41"/>
<path d="M111.863 6.1975H27.2594C27.1714 6.19569 27.0877 6.16069 27.0261 6.1C26.9645 6.03931 26.9301 5.95775 26.9301 5.87282C26.9301 5.78789 26.9645 5.70634 27.0261 5.64564C27.0877 5.58495 27.1714 5.54995 27.2594 5.54814H111.863C111.951 5.54995 112.034 5.58495 112.096 5.64564C112.157 5.70634 112.192 5.78789 112.192 5.87282C112.192 5.95775 112.157 6.03931 112.096 6.1C112.034 6.16069 111.951 6.19569 111.863 6.1975Z" fill="#CACACA"/>
<path d="M33.0185 3.89038C34.1074 3.89038 34.9902 3.01949 34.9902 1.94519C34.9902 0.870892 34.1074 0 33.0185 0C31.9295 0 31.0468 0.870892 31.0468 1.94519C31.0468 3.01949 31.9295 3.89038 33.0185 3.89038Z" fill="#3F3D56"/>
<path d="M39.8299 3.89038C40.9188 3.89038 41.8016 3.01949 41.8016 1.94519C41.8016 0.870892 40.9188 0 39.8299 0C38.7409 0 37.8582 0.870892 37.8582 1.94519C37.8582 3.01949 38.7409 3.89038 39.8299 3.89038Z" fill="#3F3D56"/>
<path d="M46.6412 3.89038C47.7302 3.89038 48.6129 3.01949 48.6129 1.94519C48.6129 0.870892 47.7302 0 46.6412 0C45.5523 0 44.6695 0.870892 44.6695 1.94519C44.6695 3.01949 45.5523 3.89038 46.6412 3.89038Z" fill="#3F3D56"/>
<path d="M107.762 0.482132H102.923C102.827 0.483963 102.736 0.522018 102.669 0.588122C102.602 0.654226 102.564 0.743107 102.564 0.835682C102.564 0.928256 102.602 1.01714 102.669 1.08324C102.736 1.14935 102.827 1.1874 102.923 1.18923H107.762C107.858 1.1874 107.949 1.14935 108.016 1.08324C108.083 1.01714 108.121 0.928256 108.121 0.835682C108.121 0.743107 108.083 0.654226 108.016 0.588122C107.949 0.522018 107.858 0.483963 107.762 0.482132Z" fill="#3F3D56"/>
<path d="M107.762 1.80927H102.923C102.827 1.8111 102.736 1.84915 102.669 1.91525C102.602 1.98136 102.564 2.07024 102.564 2.16281C102.564 2.25539 102.602 2.34427 102.669 2.41037C102.736 2.47648 102.827 2.51453 102.923 2.51636H107.762C107.858 2.51453 107.949 2.47648 108.016 2.41037C108.083 2.34427 108.121 2.25539 108.121 2.16281C108.121 2.07024 108.083 1.98136 108.016 1.91525C107.949 1.84915 107.858 1.8111 107.762 1.80927Z" fill="#3F3D56"/>
<path d="M107.762 3.13463H102.923C102.827 3.13646 102.736 3.17451 102.669 3.24062C102.602 3.30672 102.564 3.3956 102.564 3.48818C102.564 3.58075 102.602 3.66963 102.669 3.73574C102.736 3.80184 102.827 3.8399 102.923 3.84173H107.762C107.858 3.8399 107.949 3.80184 108.016 3.73574C108.083 3.66963 108.121 3.58075 108.121 3.48818C108.121 3.3956 108.083 3.30672 108.016 3.24062C107.949 3.17451 107.858 3.13646 107.762 3.13463Z" fill="#3F3D56"/>
<path d="M66.8708 24.4461V29.3273C66.8708 29.5699 66.4313 29.773 65.839 29.8287C65.834 29.8284 65.829 29.829 65.8241 29.8305C65.7254 29.8377 65.6212 29.8431 65.515 29.8431C65.1885 29.8489 64.8636 29.7977 64.5559 29.6921C64.528 29.6814 64.5 29.6688 64.4721 29.658C64.446 29.6436 64.4181 29.631 64.392 29.6167C64.2449 29.5322 64.1592 29.4333 64.1592 29.3273V24.4461H66.8708Z" fill="#CCCCCC"/>
<path d="M108.032 84.4968C109.305 84.4968 110.336 83.5013 110.336 82.2732C110.336 81.0452 109.305 80.0497 108.032 80.0497C106.76 80.0497 105.728 81.0452 105.728 82.2732C105.728 83.5013 106.76 84.4968 108.032 84.4968Z" fill="#3F3D56"/>
<path d="M107.86 83.1619C107.855 83.1619 107.85 83.1618 107.845 83.1615C107.802 83.1595 107.759 83.1484 107.721 83.1291C107.682 83.1098 107.648 83.0826 107.622 83.0495L107.237 82.5718C107.212 82.5416 107.194 82.5072 107.184 82.4703C107.173 82.4335 107.17 82.395 107.175 82.3571C107.18 82.3192 107.193 82.2826 107.212 82.2494C107.232 82.2161 107.258 82.187 107.289 82.1635L107.303 82.1531C107.335 82.1296 107.37 82.1123 107.408 82.1022C107.447 82.092 107.487 82.0893 107.526 82.094C107.565 82.0987 107.603 82.1109 107.637 82.1298C107.672 82.1487 107.702 82.174 107.726 82.2041C107.746 82.2282 107.77 82.248 107.799 82.2621C107.827 82.2761 107.858 82.2842 107.889 82.2857C107.921 82.2872 107.952 82.282 107.982 82.2707C108.011 82.2593 108.038 82.2419 108.059 82.2198L108.841 81.4233C108.896 81.3673 108.972 81.3347 109.052 81.3326C109.132 81.3305 109.209 81.3591 109.267 81.4121L109.28 81.4239C109.309 81.4501 109.332 81.4816 109.348 81.5165C109.364 81.5514 109.373 81.589 109.374 81.6272C109.375 81.6654 109.369 81.7034 109.354 81.7391C109.34 81.7748 109.319 81.8074 109.292 81.8352L108.078 83.071C108.05 83.0998 108.016 83.1226 107.979 83.1382C107.941 83.1539 107.901 83.1619 107.86 83.1619Z" fill="white"/>
<path d="M120.696 43.1612C121.968 43.1612 123 42.1657 123 40.9376C123 39.7096 121.968 38.7141 120.696 38.7141C119.423 38.7141 118.392 39.7096 118.392 40.9376C118.392 42.1657 119.423 43.1612 120.696 43.1612Z" fill="#3F3D56"/>
<path d="M120.523 41.8263C120.518 41.8263 120.514 41.8261 120.509 41.8259C120.465 41.8239 120.423 41.8128 120.384 41.7935C120.346 41.7742 120.312 41.747 120.285 41.7139L119.9 41.2362C119.876 41.206 119.858 41.1715 119.847 41.1347C119.837 41.0979 119.834 41.0594 119.839 41.0215C119.844 40.9836 119.856 40.947 119.876 40.9137C119.896 40.8805 119.922 40.8514 119.953 40.8279L119.967 40.8175C119.998 40.794 120.034 40.7767 120.072 40.7666C120.11 40.7564 120.15 40.7536 120.189 40.7584C120.229 40.7631 120.267 40.7753 120.301 40.7942C120.336 40.8131 120.366 40.8383 120.39 40.8685C120.41 40.8926 120.434 40.9124 120.462 40.9265C120.49 40.9405 120.521 40.9486 120.553 40.9501C120.584 40.9516 120.616 40.9464 120.645 40.9351C120.675 40.9237 120.701 40.9063 120.723 40.8842L121.505 40.0876C121.56 40.0317 121.636 39.9991 121.716 39.997C121.795 39.9949 121.873 40.0235 121.931 40.0765L121.944 40.0883C121.973 40.1145 121.996 40.146 122.012 40.1809C122.028 40.2158 122.037 40.2534 122.038 40.2916C122.039 40.3298 122.032 40.3678 122.018 40.4035C122.004 40.4392 121.983 40.4718 121.955 40.4995L120.742 41.7354C120.714 41.7641 120.68 41.787 120.642 41.8026C120.605 41.8182 120.564 41.8263 120.523 41.8263Z" fill="white"/>
</g>
<defs>
<clipPath id="clip0_2_101">
<rect width="123" height="116" fill="white"/>
</clipPath>
</defs>
</svg>
