<svg width="123" height="116" viewBox="0 0 123 116" fill="none" xmlns="http://www.w3.org/2000/svg">
<g clip-path="url(#clip0_2_178)">
<path d="M123 90.5218C123.003 91.2987 122.808 92.0454 122.459 92.5976C122.11 93.1499 121.636 93.4624 121.14 93.4665H39.2875C39.0419 93.4644 38.799 93.3867 38.5726 93.2376C38.3462 93.0886 38.1408 92.8711 37.968 92.5977C37.7953 92.3243 37.6586 92.0002 37.5658 91.6441C37.473 91.2879 37.4259 90.9066 37.4271 90.5219V2.94464C37.4246 2.16774 37.6191 1.42104 37.968 0.868812C38.3169 0.316585 38.7915 0.00406286 39.2875 0H121.14C121.385 0.002001 121.628 0.0797523 121.854 0.228813C122.081 0.377874 122.286 0.595326 122.459 0.868753C122.632 1.14218 122.769 1.46623 122.861 1.8224C122.954 2.17857 123.001 2.55988 123 2.94456V90.5218Z" fill="#E6E6E6"/>
<path d="M122.034 89.0877C122.034 89.8429 121.843 90.5671 121.502 91.101C121.161 91.635 120.699 91.935 120.217 91.935H40.2665C39.7844 91.935 39.3221 91.635 38.9812 91.101C38.6403 90.5671 38.4488 89.8429 38.4488 89.0877V4.4189C38.4488 3.66376 38.6403 2.93956 38.9812 2.40559C39.3221 1.87163 39.7844 1.57166 40.2665 1.57166H120.22C120.702 1.57317 121.163 1.87382 121.503 2.40762C121.843 2.94141 122.034 3.66475 122.034 4.4189V89.0877Z" fill="white"/>
<path d="M42.7218 5.24768H117.847C118.133 5.24768 118.407 5.42574 118.61 5.74267C118.812 6.05961 118.926 6.48948 118.926 6.9377V86.2405C118.926 86.6887 118.812 87.1186 118.61 87.4355C118.407 87.7524 118.133 87.9305 117.847 87.9305H42.7218C42.4357 87.9305 42.1612 87.7524 41.9589 87.4355C41.7566 87.1186 41.6429 86.6887 41.6429 86.2405V6.9377C41.6429 6.48948 41.7566 6.05961 41.9589 5.74267C42.1612 5.42574 42.4357 5.24768 42.7218 5.24768Z" fill="#E6E6E6"/>
<path d="M43.6727 7.14966H116.814C117.1 7.14966 117.375 7.32771 117.577 7.64465C117.779 7.96159 117.893 8.39145 117.893 8.83967V83.9107C117.893 84.359 117.779 84.7888 117.577 85.1058C117.375 85.4227 117.1 85.6008 116.814 85.6008H43.6727C43.3866 85.6008 43.1122 85.4227 42.9098 85.1058C42.7075 84.7888 42.5938 84.359 42.5938 83.9107V8.83967C42.5938 8.39145 42.7075 7.96159 42.9098 7.64465C43.1122 7.32771 43.3866 7.14966 43.6727 7.14966Z" fill="white"/>
<path d="M95.3156 59.3001C95.0277 59.2998 94.7431 59.2048 94.4801 59.0212C94.4189 58.9787 94.3606 58.9268 94.3059 58.8662L88.9903 53.0053C88.7207 52.708 88.5007 52.3136 88.3488 51.8553C88.1969 51.397 88.1176 50.8882 88.1176 50.3718V42.3787C88.1176 41.8623 88.1969 41.3535 88.3488 40.8952C88.5007 40.4368 88.7207 40.0424 88.9903 39.7452L94.3059 33.8843C94.3606 33.8237 94.4189 33.7718 94.4801 33.7292C94.7932 33.5112 95.1361 33.4191 95.4777 33.4614C95.8193 33.5038 96.1488 33.6791 96.4361 33.9716C96.7235 34.264 96.9596 34.6643 97.123 35.1361C97.2865 35.6078 97.3721 36.136 97.3722 36.6728V56.0777C97.3722 56.932 97.1555 57.7514 96.7698 58.3556C96.3841 58.9597 95.861 59.2991 95.3156 59.2991L95.3156 59.3001Z" fill="#3F3D56"/>
<path d="M83.4192 60.8715H68.5937C65.5691 60.8676 63.1179 57.8051 63.1147 54.026V38.7244C63.1179 34.9453 65.5691 31.8828 68.5937 31.8789H83.4579C86.461 31.8833 88.8947 34.9239 88.8982 38.6761V54.026C88.8951 57.8051 86.4439 60.8676 83.4192 60.8715Z" fill="#3F3D56"/>
<path d="M109.828 80.7734C112.264 80.7734 114.238 77.6812 114.238 73.8668C114.238 70.0524 112.264 66.9602 109.828 66.9602C107.393 66.9602 105.419 70.0524 105.419 73.8668C105.419 77.6812 107.393 80.7734 109.828 80.7734Z" fill="#E6E6E6"/>
<path d="M112.119 73.743L108.604 70.5646C108.59 70.552 108.574 70.5454 108.558 70.5454C108.542 70.5454 108.527 70.552 108.513 70.5646C108.499 70.5771 108.487 70.5952 108.479 70.6169C108.471 70.6386 108.467 70.6633 108.467 70.6884V77.0453C108.467 77.0704 108.471 77.0951 108.479 77.1168C108.487 77.1385 108.499 77.1566 108.513 77.1691C108.527 77.1817 108.542 77.1883 108.558 77.1883C108.574 77.1883 108.59 77.1817 108.604 77.1691L112.119 73.9907C112.132 73.9781 112.144 73.9601 112.152 73.9383C112.16 73.9166 112.164 73.8919 112.164 73.8669C112.164 73.8418 112.16 73.8171 112.152 73.7954C112.144 73.7736 112.132 73.7556 112.119 73.743L108.604 70.5646C108.59 70.552 108.574 70.5454 108.558 70.5454C108.542 70.5454 108.527 70.552 108.513 70.5646C108.499 70.5771 108.487 70.5952 108.479 70.6169C108.471 70.6386 108.467 70.6633 108.467 70.6884V77.0453C108.467 77.0704 108.471 77.0951 108.479 77.1168C108.487 77.1385 108.499 77.1566 108.513 77.1691C108.527 77.1817 108.542 77.1883 108.558 77.1883C108.574 77.1883 108.59 77.1817 108.604 77.1691L112.119 73.9907C112.132 73.9781 112.144 73.9601 112.152 73.9383C112.16 73.9166 112.164 73.8919 112.164 73.8669C112.164 73.8418 112.16 73.8171 112.152 73.7954C112.144 73.7736 112.132 73.7556 112.119 73.743Z" fill="white"/>
<path d="M104.104 101.025C104.106 101.802 103.912 102.548 103.563 103.101C103.214 103.653 102.739 103.965 102.243 103.969H20.3911C20.1455 103.967 19.9026 103.89 19.6762 103.741C19.4498 103.592 19.2443 103.374 19.0716 103.101C18.8988 102.827 18.7622 102.503 18.6694 102.147C18.5766 101.791 18.5294 101.41 18.5307 101.025V13.4476C18.5281 12.6707 18.7227 11.924 19.0716 11.3717C19.4204 10.8195 19.8951 10.507 20.3911 10.5029H102.243C102.489 10.5049 102.732 10.5827 102.958 10.7317C103.184 10.8808 103.39 11.0983 103.563 11.3717C103.735 11.6451 103.872 11.9692 103.965 12.3253C104.058 12.6815 104.105 13.0628 104.104 13.4475V101.025Z" fill="#E6E6E6"/>
<path d="M103.138 99.5907C103.138 100.346 102.947 101.07 102.606 101.604C102.265 102.138 101.802 102.438 101.32 102.438H21.3701C20.888 102.438 20.4257 102.138 20.0848 101.604C19.7439 101.07 19.5524 100.346 19.5524 99.5907V14.9218C19.5524 14.1667 19.7439 13.4425 20.0848 12.9085C20.4257 12.3746 20.888 12.0746 21.3701 12.0746H101.324C101.805 12.0761 102.267 12.3767 102.607 12.9105C102.947 13.4443 103.138 14.1677 103.138 14.9218V99.5907Z" fill="white"/>
<path d="M23.8254 15.7506H98.9503C99.2364 15.7506 99.5109 15.9287 99.7132 16.2456C99.9156 16.5625 100.029 16.9924 100.029 17.4406V96.7434C100.029 97.1916 99.9156 97.6215 99.7132 97.9384C99.5109 98.2554 99.2364 98.4334 98.9503 98.4334H23.8254C23.5392 98.4334 23.2648 98.2554 23.0625 97.9384C22.8601 97.6215 22.7465 97.1916 22.7465 96.7434V17.4406C22.7465 16.9924 22.8601 16.5625 23.0625 16.2456C23.2648 15.9287 23.5392 15.7506 23.8254 15.7506Z" fill="#E6E6E6"/>
<path d="M24.7763 17.6526H97.9177C98.2039 17.6526 98.4783 17.8306 98.6806 18.1476C98.883 18.4645 98.9966 18.8944 98.9966 19.3426V94.4137C98.9966 94.8619 98.883 95.2918 98.6806 95.6087C98.4783 95.9256 98.2039 96.1037 97.9177 96.1037H24.7763C24.4902 96.1037 24.2157 95.9256 24.0134 95.6087C23.8111 95.2918 23.6974 94.8619 23.6974 94.4137V19.3426C23.6974 18.8944 23.8111 18.4645 24.0134 18.1476C24.2157 17.8306 24.4902 17.6526 24.7763 17.6526Z" fill="white"/>
<path d="M76.4192 69.803C76.1313 69.8027 75.8466 69.7077 75.5837 69.5242C75.5225 69.4816 75.4641 69.4297 75.4095 69.3691L70.0939 63.5082C69.8243 63.211 69.6043 62.8165 69.4524 62.3582C69.3005 61.8999 69.2212 61.3911 69.2211 60.8747V52.8816C69.2212 52.3652 69.3005 51.8564 69.4524 51.3981C69.6043 50.9398 69.8243 50.5454 70.0939 50.2481L75.4095 44.3872C75.4641 44.3266 75.5225 44.2747 75.5837 44.2322C75.8968 44.0141 76.2397 43.9221 76.5813 43.9644C76.9229 44.0067 77.2524 44.1821 77.5397 44.4745C77.827 44.767 78.0632 45.1672 78.2266 45.639C78.3901 46.1107 78.4757 46.639 78.4757 47.1757V66.5806C78.4757 67.435 78.2591 68.2544 77.8734 68.8585C77.4877 69.4626 76.9646 69.802 76.4191 69.802L76.4192 69.803Z" fill="#3F3D56"/>
<path d="M64.5228 71.3744H49.6973C46.6726 71.3705 44.2214 68.308 44.2183 64.5289V49.2273C44.2214 45.4483 46.6726 42.3857 49.6973 42.3818H64.5615C67.5646 42.3863 69.9983 45.4269 70.0018 49.179V64.5289C69.9987 68.308 67.5475 71.3705 64.5228 71.3744Z" fill="#3F3D56"/>
<path d="M90.932 91.2763C93.3672 91.2763 95.3413 88.1841 95.3413 84.3697C95.3413 80.5553 93.3672 77.4631 90.932 77.4631C88.4969 77.4631 86.5228 80.5553 86.5228 84.3697C86.5228 88.1841 88.4969 91.2763 90.932 91.2763Z" fill="#E6E6E6"/>
<path d="M93.2222 84.246L89.7075 81.0675C89.6936 81.055 89.6779 81.0483 89.6619 81.0483C89.6459 81.0483 89.6301 81.055 89.6163 81.0675C89.6024 81.08 89.5909 81.0981 89.5829 81.1198C89.5748 81.1416 89.5706 81.1662 89.5706 81.1913V87.5483C89.5706 87.5734 89.5748 87.598 89.5829 87.6197C89.5909 87.6415 89.6024 87.6595 89.6163 87.6721C89.6301 87.6846 89.6459 87.6912 89.6619 87.6912C89.6779 87.6912 89.6936 87.6846 89.7075 87.6721L93.2222 84.4936C93.236 84.481 93.2476 84.463 93.2556 84.4413C93.2636 84.4195 93.2678 84.3949 93.2678 84.3698C93.2678 84.3447 93.2636 84.32 93.2556 84.2983C93.2476 84.2766 93.236 84.2585 93.2222 84.246L89.7075 81.0675C89.6936 81.055 89.6779 81.0483 89.6619 81.0483C89.6459 81.0483 89.6301 81.055 89.6163 81.0675C89.6024 81.08 89.5909 81.0981 89.5829 81.1198C89.5748 81.1416 89.5706 81.1662 89.5706 81.1913V87.5483C89.5706 87.5734 89.5748 87.598 89.5829 87.6197C89.5909 87.6415 89.6024 87.6595 89.6163 87.6721C89.6301 87.6846 89.6459 87.6912 89.6619 87.6912C89.6779 87.6912 89.6936 87.6846 89.7075 87.6721L93.2222 84.4936C93.236 84.481 93.2476 84.463 93.2556 84.4413C93.2636 84.4195 93.2678 84.3949 93.2678 84.3698C93.2678 84.3447 93.2636 84.32 93.2556 84.2983C93.2476 84.2766 93.236 84.2585 93.2222 84.246Z" fill="white"/>
<path d="M85.5728 113.055C85.5754 113.832 85.3809 114.579 85.032 115.131C84.6831 115.683 84.2085 115.996 83.7125 116H1.86041C1.61482 115.998 1.37189 115.92 1.14549 115.771C0.919085 115.622 0.713641 115.405 0.540889 115.131C0.368136 114.858 0.231457 114.534 0.138655 114.178C0.0458536 113.821 -0.00125242 113.44 2.5601e-05 113.055V25.4782C-0.00256784 24.7013 0.191973 23.9546 0.540853 23.4024C0.889733 22.8502 1.36437 22.5376 1.86036 22.5336H83.7125C83.958 22.5356 84.201 22.6133 84.4274 22.7624C84.6538 22.9114 84.8592 23.1289 85.032 23.4023C85.2047 23.6758 85.3414 23.9998 85.4342 24.356C85.527 24.7121 85.5741 25.0934 85.5728 25.4781V113.055Z" fill="#E6E6E6"/>
<path d="M84.6073 111.621C84.6073 112.376 84.4158 113.101 84.0749 113.635C83.734 114.169 83.2717 114.469 82.7896 114.469H2.83938C2.3573 114.469 1.89495 114.169 1.55406 113.635C1.21318 113.101 1.02167 112.376 1.02167 111.621V26.9525C1.02167 26.1973 1.21318 25.4731 1.55406 24.9392C1.89495 24.4052 2.3573 24.1052 2.83938 24.1052H82.7932C83.2747 24.1067 83.7361 24.4074 84.0762 24.9412C84.4163 25.475 84.6073 26.1983 84.6073 26.9525V111.621Z" fill="white"/>
<path d="M5.29469 27.7811H80.4196C80.7057 27.7811 80.9802 27.9592 81.1825 28.2761C81.3849 28.5931 81.4985 29.0229 81.4985 29.4711V108.774C81.4985 109.222 81.3849 109.652 81.1825 109.969C80.9802 110.286 80.7057 110.464 80.4196 110.464H5.29469C5.00854 110.464 4.73411 110.286 4.53177 109.969C4.32943 109.652 4.21576 109.222 4.21576 108.774V29.4711C4.21576 29.0229 4.32943 28.5931 4.53177 28.2761C4.73411 27.9592 5.00854 27.7811 5.29469 27.7811Z" fill="#E6E6E6"/>
<path d="M6.24561 29.6831H79.387C79.5287 29.6831 79.669 29.7268 79.7999 29.8117C79.9308 29.8967 80.0497 30.0212 80.1499 30.1781C80.2501 30.335 80.3296 30.5213 80.3838 30.7264C80.438 30.9314 80.4659 31.1512 80.4659 31.3731V106.444C80.4659 106.666 80.438 106.886 80.3838 107.091C80.3296 107.296 80.2501 107.482 80.1499 107.639C80.0497 107.796 79.9308 107.921 79.7999 108.006C79.669 108.09 79.5287 108.134 79.387 108.134H6.24561C5.95946 108.134 5.68503 107.956 5.4827 107.639C5.28036 107.322 5.16669 106.892 5.16669 106.444V31.3731C5.16669 30.9249 5.28036 30.495 5.4827 30.1781C5.68503 29.8612 5.95946 29.6831 6.24561 29.6831Z" fill="white"/>
<path d="M57.8885 81.8335C57.6006 81.8332 57.3159 81.7382 57.053 81.5547C56.9918 81.5121 56.9334 81.4602 56.8788 81.3996L51.5632 75.5387C51.2936 75.2415 51.0736 74.8471 50.9217 74.3887C50.7698 73.9304 50.6905 73.4216 50.6904 72.9052V64.9121C50.6905 64.3957 50.7698 63.8869 50.9217 63.4286C51.0736 62.9703 51.2936 62.5759 51.5632 62.2786L56.8788 56.4177C56.9334 56.3571 56.9918 56.3052 57.053 56.2627C57.3661 56.0446 57.709 55.9526 58.0506 55.9949C58.3922 56.0372 58.7217 56.2126 59.009 56.505C59.2963 56.7975 59.5325 57.1978 59.6959 57.6695C59.8594 58.1412 59.945 58.6695 59.945 59.2062V78.6111C59.945 79.4655 59.7284 80.2849 59.3427 80.889C58.957 81.4931 58.4339 81.8325 57.8884 81.8325L57.8885 81.8335Z" fill="#6C63FF"/>
<path d="M45.9921 83.4051H31.1666C28.1419 83.4012 25.6907 80.3386 25.6876 76.5596V61.2579C25.6907 57.4789 28.1419 54.4164 31.1666 54.4125H46.0308C49.0339 54.4169 51.4676 57.4575 51.4711 61.2096V76.5596C51.468 80.3386 49.0168 83.4012 45.9921 83.4051Z" fill="#6C63FF"/>
<path d="M72.4013 103.307C74.8365 103.307 76.8106 100.215 76.8106 96.4004C76.8106 92.586 74.8365 89.4938 72.4013 89.4938C69.9662 89.4938 67.9921 92.586 67.9921 96.4004C67.9921 100.215 69.9662 103.307 72.4013 103.307Z" fill="#3F3D56"/>
<path d="M74.6915 96.2765L71.1768 93.098C71.1629 93.0855 71.1472 93.0789 71.1312 93.0789C71.1152 93.0789 71.0994 93.0855 71.0856 93.098C71.0717 93.1106 71.0602 93.1286 71.0521 93.1503C71.0441 93.1721 71.0399 93.1967 71.0399 93.2218V99.5788C71.0399 99.6039 71.0441 99.6285 71.0521 99.6503C71.0602 99.672 71.0717 99.69 71.0856 99.7026C71.0994 99.7151 71.1152 99.7217 71.1312 99.7217C71.1472 99.7217 71.1629 99.7151 71.1768 99.7026L74.6915 96.5241C74.7053 96.5116 74.7169 96.4935 74.7249 96.4718C74.7329 96.4501 74.7371 96.4254 74.7371 96.4003C74.7371 96.3752 74.7329 96.3506 74.7249 96.3288C74.7169 96.3071 74.7053 96.289 74.6915 96.2765L71.1768 93.098C71.1629 93.0855 71.1472 93.0789 71.1312 93.0789C71.1152 93.0789 71.0994 93.0855 71.0856 93.098C71.0717 93.1106 71.0602 93.1286 71.0521 93.1503C71.0441 93.1721 71.0399 93.1967 71.0399 93.2218V99.5788C71.0399 99.6039 71.0441 99.6285 71.0521 99.6503C71.0602 99.672 71.0717 99.69 71.0856 99.7026C71.0994 99.7151 71.1152 99.7217 71.1312 99.7217C71.1472 99.7217 71.1629 99.7151 71.1768 99.7026L74.6915 96.5241C74.7053 96.5116 74.7169 96.4935 74.7249 96.4718C74.7329 96.4501 74.7371 96.4254 74.7371 96.4003C74.7371 96.3752 74.7329 96.3506 74.7249 96.3288C74.7169 96.3071 74.7053 96.289 74.6915 96.2765Z" fill="white"/>
</g>
<defs>
<clipPath id="clip0_2_178">
<rect width="123" height="116" fill="white"/>
</clipPath>
</defs>
</svg>
